<?xml version="1.0" encoding="UTF-8" standalone="no"?>
<svg
   xmlns:dc="http://purl.org/dc/elements/1.1/"
   xmlns:cc="http://creativecommons.org/ns#"
   xmlns:rdf="http://www.w3.org/1999/02/22-rdf-syntax-ns#"
   xmlns:svg="http://www.w3.org/2000/svg"
   xmlns="http://www.w3.org/2000/svg"
   xmlns:sodipodi="http://sodipodi.sourceforge.net/DTD/sodipodi-0.dtd"
   xmlns:inkscape="http://www.inkscape.org/namespaces/inkscape"
   inkscape:export-ydpi="96"
   inkscape:export-xdpi="96"
   inkscape:export-filename="C:\Users\felip\Documents\GitHub\Python-Exercicios\felipeyamane\images\eclipse.png"
   width="210mm"
   height="297mm"
   viewBox="0 0 210 297"
   version="1.1"
   id="svg8"
   inkscape:version="1.0.1 (3bc2e813f5, 2020-09-07)"
   sodipodi:docname="eclipse.svg">
  <defs
     id="defs2">
    <pattern
       y="0"
       x="0"
       height="6"
       width="6"
       patternUnits="userSpaceOnUse"
       id="EMFhbasepattern" />
    <linearGradient
       gradientUnits="userSpaceOnUse"
       gradientTransform="matrix(0.14896041,0,0,-0.15028333,-19.60223,229.4675)"
       y2="1151.089"
       y1="1237.476"
       x2="170.659"
       x1="70.251999"
       id="a">
      <stop
         id="stop2"
         stop-color="#5A9FD4"
         offset="0" />
      <stop
         id="stop4"
         stop-color="#306998"
         offset="1" />
    </linearGradient>
    <linearGradient
       gradientUnits="userSpaceOnUse"
       gradientTransform="matrix(0.14896041,0,0,-0.15028333,-19.60223,229.4675)"
       y2="1149.537"
       y1="1098.811"
       x2="173.62"
       x1="209.474"
       id="b">
      <stop
         id="stop9"
         stop-color="#FFD43B"
         offset="0" />
      <stop
         id="stop11"
         stop-color="#FFE873"
         offset="1" />
    </linearGradient>
    <radialGradient
       gradientUnits="userSpaceOnUse"
       gradientTransform="matrix(0,-0.0635,-0.27913541,0,129.14493,189.71623)"
       r="26.743"
       cy="444.45001"
       cx="1825.678"
       id="c">
      <stop
         id="stop16"
         stop-opacity=".498"
         stop-color="#B8B8B8"
         offset="0" />
      <stop
         id="stop18"
         stop-opacity="0"
         stop-color="#7F7F7F"
         offset="1" />
    </radialGradient>
    <linearGradient
       id="a-8"
       y2="-72.29315"
       x2="23.219528"
       y1="505.63019"
       x1="23.219528"
       gradientTransform="scale(3.3593276,0.29767862)"
       gradientUnits="userSpaceOnUse">
      <stop
         id="stop2-1"
         offset="30.33%"
         stop-color="#473788" />
      <stop
         id="stop4-3"
         offset="87.2%"
         stop-color="#2C2255" />
    </linearGradient>
    <linearGradient
       id="b-3"
       y2="-72.292922"
       x2="23.220356"
       y1="505.64769"
       x1="23.220356"
       gradientTransform="scale(3.359184,0.29769134)"
       gradientUnits="userSpaceOnUse">
      <stop
         id="stop7"
         offset="30.33%"
         stop-color="#473788" />
      <stop
         id="stop9-1"
         offset="87.2%"
         stop-color="#2C2255" />
    </linearGradient>
    <linearGradient
       id="c-0"
       y2="-38.117287"
       x2="44.024869"
       y1="266.68168"
       x1="44.024869"
       gradientTransform="scale(1.771762,0.5644099)"
       gradientUnits="userSpaceOnUse">
      <stop
         id="stop12"
         offset="30.33%"
         stop-color="#473788" />
      <stop
         id="stop14"
         offset="86.31%"
         stop-color="#2C2255" />
    </linearGradient>
  </defs>
  <sodipodi:namedview
     id="base"
     pagecolor="#ffffff"
     bordercolor="#666666"
     borderopacity="1.0"
     inkscape:pageopacity="0.0"
     inkscape:pageshadow="2"
     inkscape:zoom="2.300169"
     inkscape:cx="487.05599"
     inkscape:cy="189.79142"
     inkscape:document-units="mm"
     inkscape:current-layer="layer1"
     inkscape:document-rotation="0"
     showgrid="false"
     inkscape:window-width="1920"
     inkscape:window-height="1017"
     inkscape:window-x="-8"
     inkscape:window-y="-8"
     inkscape:window-maximized="1" />
  <metadata
     id="metadata5">
    <rdf:RDF>
      <cc:Work
         rdf:about="">
        <dc:format>image/svg+xml</dc:format>
        <dc:type
           rdf:resource="http://purl.org/dc/dcmitype/StillImage" />
        <dc:title />
      </cc:Work>
    </rdf:RDF>
  </metadata>
  <g
     inkscape:label="Layer 1"
     inkscape:groupmode="layer"
     id="layer1">
    <g
       id="g72"
       inkscape:export-xdpi="96"
       inkscape:export-ydpi="96">
      <path
         inkscape:export-ydpi="96"
         inkscape:export-xdpi="96"
         id="path883-5"
         d="m 102.76355,35.591838 20.25327,-11.70882 20.25328,11.64485 v 23.433726 l -20.18939,11.70884 -20.31716,-11.644837 z"
         style="opacity:0.992;fill:#ffffff;fill-opacity:1;stroke:#ffffff;stroke-width:7.82781;stroke-linecap:round;stroke-linejoin:round;stroke-miterlimit:10;stroke-dasharray:none;stroke-opacity:1;paint-order:stroke fill markers" />
      <g
         id="g873"
         style="opacity:0.992"
         inkscape:export-xdpi="96"
         inkscape:export-ydpi="96">
        <path
           style="opacity:1;fill:#2c2255;fill-opacity:1;stroke:#2c2255;stroke-width:7.58439;stroke-linecap:round;stroke-linejoin:round;stroke-miterlimit:10;stroke-dasharray:none;stroke-opacity:1;paint-order:stroke fill markers"
           d="m 103.3934,35.955221 19.62342,-11.34469 19.62343,11.28271 v 22.70497 l -19.56152,11.34471 -19.68533,-11.2827 z"
           id="path883"
           inkscape:export-xdpi="96"
           inkscape:export-ydpi="96" />
        <path
           id="path19"
           fill="#2c2255"
           d="m 115.51195,51.589975 h -5.11963 c 0.67787,2.325176 1.93573,4.409173 3.77723,6.251073 2.93579,2.936045 6.46596,4.402237 10.59417,4.402237 0.82522,0 1.62479,-0.06151 2.40133,-0.178629 3.10944,-0.469406 5.83192,-1.875269 8.16456,-4.223608 1.85329,-1.841246 3.12004,-3.925897 3.80315,-6.251073 z m -2.82298,-6.953285 h -2.67445 a 15.637235,15.637235 0 0 0 -0.19473,1.802641 h 29.88903 c -0.0305,-0.615059 -0.0972,-1.215067 -0.19591,-1.802641 m -29.69312,3.476641 c 0.0302,0.615452 0.0966,1.215327 0.19473,1.802641 h 29.49892 a 15.554399,15.554399 0 0 0 0.19629,-1.802641 m -0.57632,-5.151036 c -0.68245,-2.33159 -1.94947,-4.425402 -3.8038,-6.280124 -2.32649,-2.326356 -5.04111,-3.722142 -8.14061,-4.19168 a 16.137785,16.137785 0 0 0 -2.42515,-0.181376 c -4.12821,0 -7.65864,1.458208 -10.59416,4.373185 -1.84216,1.854593 -3.10081,3.948405 -3.77815,6.279995"
           style="fill:#ffffff;stroke-width:0.130863" />
        <path
           id="path21"
           fill="#f7941e"
           d="m 108.93097,47.276855 c 0,-7.895893 5.92994,-14.456327 13.64432,-15.610278 -0.19132,-0.0069 -0.38369,-0.01465 -0.57698,-0.01465 -8.65686,1.53e-4 -15.67531,6.995815 -15.67531,15.624935 0,8.62951 7.01819,15.624672 15.67531,15.624672 0.19394,0 0.38618,-0.0073 0.57829,-0.0144 -7.71569,-1.15382 -13.64563,-7.714384 -13.64563,-15.610276 z"
           style="opacity:0.9;stroke-width:0.130863" />
        <g
           id="g29"
           transform="matrix(0.13086319,0,0,0.13086319,106.30154,31.561494)"
           style="opacity:0.7;fill:#cccccc;fill-opacity:1;stroke-width:1.00105;stroke-miterlimit:10;stroke-dasharray:none">
          <path
             id="path23"
             transform="translate(63.083,99.461)"
             fill="url(#a)"
             d="M 155.728,14.226 A 77.824,77.824 0 0 0 153.364,0.451 H 2.642 A 77.753,77.753 0 0 0 0.276,14.226 Z"
             style="fill:#cccccc;fill-opacity:1;stroke-width:1.00105;stroke-miterlimit:10;stroke-dasharray:none" />
          <path
             id="path25"
             transform="translate(63.083,99.461)"
             fill="url(#b)"
             d="M 155.728,27.02 H 0.278 a 77.611,77.611 0 0 0 2.364,13.776 h 150.724 a 77.821,77.821 0 0 0 2.362,-13.776 z"
             style="fill:#cccccc;fill-opacity:1;stroke-width:1.00105;stroke-miterlimit:10;stroke-dasharray:none" />
          <path
             id="path27"
             transform="translate(63.083,99.461)"
             fill="url(#c)"
             d="m 78.003,98.636 c 31.3,0 58.282,-18.441 70.706,-45.048 H 7.297 c 12.425,26.607 39.405,45.048 70.706,45.048 z"
             style="fill:#cccccc;fill-opacity:1;stroke-width:1.00105;stroke-miterlimit:10;stroke-dasharray:none" />
        </g>
        <g
           id="g33"
           fill="#ffffff"
           transform="matrix(0.13086319,0,0,0.13086319,106.30154,31.561494)"
           style="fill:#2c2255;fill-opacity:1">
          <path
             id="path31"
             d="m 51.84,126.482 h 203.29 c 0.108,-2.035 0.168,-4.084 0.168,-6.147 0,-2.232 -0.081,-4.444 -0.208,-6.647 H 26.885 c -0.126,2.2 -0.208,4.415 -0.208,6.647 0,2.063 0.06,4.112 0.168,6.147 z M 69.924,87.12 H 31.252 c -1.271,4.166 -2.091,8.44 -2.879,12.795 H 253.065 A 113.52,113.52 0 0 0 249.99,87.12 m -11.617,53.135 H 28.371 c 0.766,4.352 1.638,8.623 2.888,12.794 h 219.479 a 113.252,113.252 0 0 0 3.023,-12.794 z"
             style="fill:#2c2255;fill-opacity:1" />
        </g>
      </g>
    </g>
  </g>
</svg>
