<?xml version="1.0" encoding="UTF-8" standalone="no"?>
<svg
   xmlns:dc="http://purl.org/dc/elements/1.1/"
   xmlns:cc="http://creativecommons.org/ns#"
   xmlns:rdf="http://www.w3.org/1999/02/22-rdf-syntax-ns#"
   xmlns:svg="http://www.w3.org/2000/svg"
   xmlns="http://www.w3.org/2000/svg"
   xmlns:sodipodi="http://sodipodi.sourceforge.net/DTD/sodipodi-0.dtd"
   xmlns:inkscape="http://www.inkscape.org/namespaces/inkscape"
   inkscape:export-ydpi="96"
   inkscape:export-xdpi="96"
   inkscape:export-filename="C:\Users\felip\Documents\GitHub\Python-Exercicios\felipeyamane\images\git.png"
   sodipodi:docname="github.svg"
   inkscape:version="1.0.1 (3bc2e813f5, 2020-09-07)"
   id="svg8"
   version="1.1"
   viewBox="0 0 210 297"
   height="297mm"
   width="210mm">
  <defs
     id="defs2">
    <pattern
       id="EMFhbasepattern"
       patternUnits="userSpaceOnUse"
       width="6"
       height="6"
       x="0"
       y="0" />
    <linearGradient
       id="a"
       x1="70.251999"
       x2="170.659"
       y1="1237.476"
       y2="1151.089"
       gradientTransform="matrix(0.14896041,0,0,-0.15028333,-19.60223,229.4675)"
       gradientUnits="userSpaceOnUse">
      <stop
         offset="0"
         stop-color="#5A9FD4"
         id="stop2" />
      <stop
         offset="1"
         stop-color="#306998"
         id="stop4" />
    </linearGradient>
    <linearGradient
       id="b"
       x1="209.474"
       x2="173.62"
       y1="1098.811"
       y2="1149.537"
       gradientTransform="matrix(0.14896041,0,0,-0.15028333,-19.60223,229.4675)"
       gradientUnits="userSpaceOnUse">
      <stop
         offset="0"
         stop-color="#FFD43B"
         id="stop9" />
      <stop
         offset="1"
         stop-color="#FFE873"
         id="stop11" />
    </linearGradient>
    <radialGradient
       id="c"
       cx="1825.678"
       cy="444.45001"
       r="26.743"
       gradientTransform="matrix(0,-0.0635,-0.27913541,0,129.14493,189.71623)"
       gradientUnits="userSpaceOnUse">
      <stop
         offset="0"
         stop-color="#B8B8B8"
         stop-opacity=".498"
         id="stop16" />
      <stop
         offset="1"
         stop-color="#7F7F7F"
         stop-opacity="0"
         id="stop18" />
    </radialGradient>
    <linearGradient
       gradientUnits="userSpaceOnUse"
       gradientTransform="scale(3.3593276,0.29767862)"
       x1="23.219528"
       y1="505.63019"
       x2="23.219528"
       y2="-72.29315"
       id="a-8">
      <stop
         stop-color="#473788"
         offset="30.33%"
         id="stop2-1" />
      <stop
         stop-color="#2C2255"
         offset="87.2%"
         id="stop4-3" />
    </linearGradient>
    <linearGradient
       gradientUnits="userSpaceOnUse"
       gradientTransform="scale(3.359184,0.29769134)"
       x1="23.220356"
       y1="505.64769"
       x2="23.220356"
       y2="-72.292922"
       id="b-3">
      <stop
         stop-color="#473788"
         offset="30.33%"
         id="stop7" />
      <stop
         stop-color="#2C2255"
         offset="87.2%"
         id="stop9-1" />
    </linearGradient>
    <linearGradient
       gradientUnits="userSpaceOnUse"
       gradientTransform="scale(1.771762,0.5644099)"
       x1="44.024869"
       y1="266.68168"
       x2="44.024869"
       y2="-38.117287"
       id="c-0">
      <stop
         stop-color="#473788"
         offset="30.33%"
         id="stop12" />
      <stop
         stop-color="#2C2255"
         offset="86.31%"
         id="stop14" />
    </linearGradient>
  </defs>
  <sodipodi:namedview
     inkscape:window-maximized="1"
     inkscape:window-y="-8"
     inkscape:window-x="-8"
     inkscape:window-height="1017"
     inkscape:window-width="1920"
     showgrid="false"
     inkscape:document-rotation="0"
     inkscape:current-layer="layer1"
     inkscape:document-units="mm"
     inkscape:cy="132.66282"
     inkscape:cx="406.3524"
     inkscape:zoom="3.2529302"
     inkscape:pageshadow="2"
     inkscape:pageopacity="0.0"
     borderopacity="1.0"
     bordercolor="#666666"
     pagecolor="#ffffff"
     id="base" />
  <metadata
     id="metadata5">
    <rdf:RDF>
      <cc:Work
         rdf:about="">
        <dc:format>image/svg+xml</dc:format>
        <dc:type
           rdf:resource="http://purl.org/dc/dcmitype/StillImage" />
        <dc:title />
      </cc:Work>
    </rdf:RDF>
  </metadata>
  <g
     id="layer1"
     inkscape:groupmode="layer"
     inkscape:label="Layer 1">
    <g
       id="g1065" />
    <g
       id="g92"
       inkscape:export-xdpi="96"
       inkscape:export-ydpi="96">
      <path
         inkscape:export-ydpi="96"
         inkscape:export-xdpi="96"
         id="path883-5"
         d="m 104.78822,30.836578 20.25327,-11.70882 20.25328,11.64485 v 23.433726 l -20.18939,11.70884 -20.31716,-11.644837 z"
         style="opacity:0.992;fill:#ffffff;fill-opacity:1;stroke:#ffffff;stroke-width:7.82781;stroke-linecap:round;stroke-linejoin:round;stroke-miterlimit:10;stroke-dasharray:none;stroke-opacity:1;paint-order:stroke fill markers" />
      <g
         id="g66">
        <path
           inkscape:export-ydpi="96"
           inkscape:export-xdpi="96"
           id="path883"
           d="m 105.41808,31.199961 19.62341,-11.34469 19.62343,11.28271 v 22.70497 l -19.56152,11.34471 -19.68532,-11.2827 z"
           style="opacity:1;fill:#000000;fill-opacity:1;stroke:#000000;stroke-width:7.58439;stroke-linecap:round;stroke-linejoin:round;stroke-miterlimit:10;stroke-dasharray:none;stroke-opacity:1;paint-order:stroke fill markers" />
        <g
           inkscape:export-ydpi="96"
           inkscape:export-xdpi="96"
           fill-rule="evenodd"
           fill="none"
           stroke-width="1"
           stroke="none"
           id="Page-1"
           transform="matrix(1.733626,0,0,1.7426729,107.70524,25.094672)"
           style="fill:#ffffff">
          <g
             fill="#000000"
             transform="translate(-140,-7559)"
             id="Dribbble-Light-Preview"
             style="fill:#ffffff">
            <g
               transform="translate(56,160)"
               id="icons"
               style="fill:#ffffff">
              <path
                 id="github-[#142]"
                 d="m 94,7399 c 5.523,0 10,4.59 10,10.253 0,4.529 -2.862,8.371 -6.833,9.728 -0.507,0.101 -0.687,-0.219 -0.687,-0.492 0,-0.338 0.012,-1.442 0.012,-2.814 0,-0.956 -0.32,-1.58 -0.679,-1.898 2.227,-0.254 4.567,-1.121 4.567,-5.059 0,-1.12 -0.388,-2.034 -1.03,-2.752 0.104,-0.259 0.447,-1.302 -0.098,-2.714 0,0 -0.838,-0.275 -2.747,1.051 a 9.396,9.396 0 0 0 -2.505,-0.345 9.375,9.375 0 0 0 -2.503,0.345 c -1.911,-1.326 -2.751,-1.051 -2.751,-1.051 -0.543,1.412 -0.2,2.455 -0.097,2.714 -0.639,0.718 -1.03,1.632 -1.03,2.752 0,3.928 2.335,4.808 4.556,5.067 -0.286,0.256 -0.545,0.708 -0.635,1.371 -0.57,0.262 -2.018,0.715 -2.91,-0.852 0,0 -0.529,-0.985 -1.533,-1.057 0,0 -0.975,-0.013 -0.068,0.623 0,0 0.655,0.315 1.11,1.5 0,0 0.587,1.83 3.369,1.21 0.005,0.857 0.014,1.665 0.014,1.909 0,0.271 -0.184,0.588 -0.683,0.493 C 86.865,7417.627 84,7413.783 84,7409.253 84,7403.59 88.478,7399 94,7399"
                 style="fill:#ffffff" />
            </g>
          </g>
        </g>
      </g>
    </g>
  </g>
</svg>
