<?xml version="1.0" encoding="UTF-8" standalone="no"?>
<svg
   xmlns:dc="http://purl.org/dc/elements/1.1/"
   xmlns:cc="http://creativecommons.org/ns#"
   xmlns:rdf="http://www.w3.org/1999/02/22-rdf-syntax-ns#"
   xmlns:svg="http://www.w3.org/2000/svg"
   xmlns="http://www.w3.org/2000/svg"
   xmlns:sodipodi="http://sodipodi.sourceforge.net/DTD/sodipodi-0.dtd"
   xmlns:inkscape="http://www.inkscape.org/namespaces/inkscape"
   width="210mm"
   height="297mm"
   viewBox="0 0 210 297"
   version="1.1"
   id="svg8"
   inkscape:version="1.0.1 (3bc2e813f5, 2020-09-07)"
   sodipodi:docname="inkscape.svg">
  <defs
     id="defs2">
    <pattern
       y="0"
       x="0"
       height="6"
       width="6"
       patternUnits="userSpaceOnUse"
       id="EMFhbasepattern" />
    <linearGradient
       gradientUnits="userSpaceOnUse"
       gradientTransform="matrix(0.14896041,0,0,-0.15028333,-19.60223,229.4675)"
       y2="1151.089"
       y1="1237.476"
       x2="170.659"
       x1="70.251999"
       id="a">
      <stop
         id="stop2"
         stop-color="#5A9FD4"
         offset="0" />
      <stop
         id="stop4"
         stop-color="#306998"
         offset="1" />
    </linearGradient>
    <linearGradient
       gradientUnits="userSpaceOnUse"
       gradientTransform="matrix(0.14896041,0,0,-0.15028333,-19.60223,229.4675)"
       y2="1149.537"
       y1="1098.811"
       x2="173.62"
       x1="209.474"
       id="b">
      <stop
         id="stop9"
         stop-color="#FFD43B"
         offset="0" />
      <stop
         id="stop11"
         stop-color="#FFE873"
         offset="1" />
    </linearGradient>
    <radialGradient
       gradientUnits="userSpaceOnUse"
       gradientTransform="matrix(0,-0.0635,-0.27913541,0,129.14493,189.71623)"
       r="26.743"
       cy="444.45001"
       cx="1825.678"
       id="c">
      <stop
         id="stop16"
         stop-opacity=".498"
         stop-color="#B8B8B8"
         offset="0" />
      <stop
         id="stop18"
         stop-opacity="0"
         stop-color="#7F7F7F"
         offset="1" />
    </radialGradient>
  </defs>
  <sodipodi:namedview
     id="base"
     pagecolor="#ffffff"
     bordercolor="#666666"
     borderopacity="1.0"
     inkscape:pageopacity="0.0"
     inkscape:pageshadow="2"
     inkscape:zoom="2.300169"
     inkscape:cx="405.28091"
     inkscape:cy="113.95471"
     inkscape:document-units="mm"
     inkscape:current-layer="layer1"
     inkscape:document-rotation="0"
     showgrid="false"
     inkscape:window-width="1920"
     inkscape:window-height="1017"
     inkscape:window-x="-8"
     inkscape:window-y="-8"
     inkscape:window-maximized="1" />
  <metadata
     id="metadata5">
    <rdf:RDF>
      <cc:Work
         rdf:about="">
        <dc:format>image/svg+xml</dc:format>
        <dc:type
           rdf:resource="http://purl.org/dc/dcmitype/StillImage" />
        <dc:title />
      </cc:Work>
    </rdf:RDF>
  </metadata>
  <g
     inkscape:label="Layer 1"
     inkscape:groupmode="layer"
     id="layer1">
    <g
       id="g77"
       inkscape:export-xdpi="96"
       inkscape:export-ydpi="96">
      <path
         inkscape:export-ydpi="96"
         inkscape:export-xdpi="96"
         id="path883-5"
         d="m 105.82863,23.359075 20.25327,-11.70882 20.25328,11.64485 v 23.433726 l -20.18939,11.70884 -20.31716,-11.644837 z"
         style="opacity:0.992;fill:#ffffff;fill-opacity:1;stroke:#ffffff;stroke-width:7.82781;stroke-linecap:round;stroke-linejoin:round;stroke-miterlimit:10;stroke-dasharray:none;stroke-opacity:1;paint-order:stroke fill markers" />
      <g
         id="g66">
        <g
           id="g59">
          <path
             style="opacity:1;fill:#000000;fill-opacity:1;stroke:#000000;stroke-width:7.58439;stroke-linecap:round;stroke-linejoin:round;stroke-miterlimit:10;stroke-dasharray:none;stroke-opacity:1;paint-order:stroke fill markers"
             d="m 106.45848,23.722458 19.62342,-11.34469 19.62343,11.28271 v 22.70497 l -19.56152,11.34471 -19.68533,-11.2827 z"
             id="path883"
             inkscape:export-xdpi="96"
             inkscape:export-ydpi="96" />
        </g>
        <path
           inkscape:export-ydpi="96"
           inkscape:export-xdpi="96"
           sodipodi:nodetypes="cccccccccccccccccccccsccccccccccscsccccc"
           style="fill:#ffffff;stroke-width:0.307061"
           d="m 137.18936,46.120228 c 0.27635,-0.276355 0,-1.289657 -1.41249,-1.596719 -1.32037,1.166833 0.12283,2.333666 1.41249,1.596719 z m -17.0112,-1.166833 c -0.9826,-1.289658 -4.63663,0.06142 -3.0399,1.443188 1.01329,0.859771 2.57931,-0.214944 3.0399,-1.443188 z m 20.35815,-1.75025 c -0.61411,-1.750249 -3.74614,-1.627425 -4.23744,0.122825 0,0.583417 4.23744,0.95189 4.23744,-0.122825 z m -8.35205,-2.824964 c 2.85566,-1.65813 12.71233,-2.763551 8.045,-7.430881 L 128.46881,20.910498 c -1.44318,-1.381776 -3.83826,-1.412482 -5.22004,0 L 111.8875,32.548119 c -3.83826,4.75945 2.61003,4.20674 5.37358,5.55781 l -2.82497,2.763551 c 0.9826,1.013302 5.9877,1.965192 7.001,2.978494 l -1.04401,3.101319 c 0.9826,1.013305 3.28556,0.06142 3.71545,2.395075 0.30705,1.658131 4.14532,0.706239 6.01839,-0.644823 l -0.92118,-1.934488 c 2.45649,-2.517904 4.75945,-0.921184 5.61921,-3.439087 0.42989,-1.258951 -3.62331,-1.934486 -2.64071,-2.947789 z m -6.04911,0.429887 c -1.19754,0.30706 -7.06241,-2.05731 -5.58852,-2.05731 0.30706,0.184236 4.88228,1.136126 6.0184,1.320363 0.36847,0.06142 0.0922,0.460591 -0.42988,0.736947 z m 3.65403,-12.12892 -1.87308,-0.982596 -2.97849,1.873073 -0.98259,-3.899677 -1.62744,2.855669 h -2.45648 c -1.01331,0 -1.10542,-1.35107 -0.21494,-2.241547 1.59671,-1.719543 3.40837,-3.500498 4.39097,-4.5138 0.9826,-1.013302 2.73284,-1.013302 3.71544,-0.03071 l 4.48309,4.544506 c 0.42989,0.429885 0.42989,1.258951 0.18424,1.5046 l -2.24154,-1.780953 z"
           id="path2" />
      </g>
    </g>
  </g>
</svg>
