<?xml version="1.0" encoding="UTF-8" standalone="no"?>
<svg
   xmlns:dc="http://purl.org/dc/elements/1.1/"
   xmlns:cc="http://creativecommons.org/ns#"
   xmlns:rdf="http://www.w3.org/1999/02/22-rdf-syntax-ns#"
   xmlns:svg="http://www.w3.org/2000/svg"
   xmlns="http://www.w3.org/2000/svg"
   xmlns:sodipodi="http://sodipodi.sourceforge.net/DTD/sodipodi-0.dtd"
   xmlns:inkscape="http://www.inkscape.org/namespaces/inkscape"
   inkscape:export-ydpi="96"
   inkscape:export-xdpi="96"
   inkscape:export-filename="C:\Users\felip\Documents\GitHub\Python-Exercicios\felipeyamane\images\java.png"
   sodipodi:docname="java.svg"
   inkscape:version="1.0.1 (3bc2e813f5, 2020-09-07)"
   id="svg8"
   version="1.1"
   viewBox="0 0 210 297"
   height="297mm"
   width="210mm">
  <defs
     id="defs2">
    <pattern
       id="EMFhbasepattern"
       patternUnits="userSpaceOnUse"
       width="6"
       height="6"
       x="0"
       y="0" />
    <linearGradient
       id="a"
       x1="70.251999"
       x2="170.659"
       y1="1237.476"
       y2="1151.089"
       gradientTransform="matrix(0.14896041,0,0,-0.15028333,-19.60223,229.4675)"
       gradientUnits="userSpaceOnUse">
      <stop
         offset="0"
         stop-color="#5A9FD4"
         id="stop2" />
      <stop
         offset="1"
         stop-color="#306998"
         id="stop4" />
    </linearGradient>
    <linearGradient
       id="b"
       x1="209.474"
       x2="173.62"
       y1="1098.811"
       y2="1149.537"
       gradientTransform="matrix(0.14896041,0,0,-0.15028333,-19.60223,229.4675)"
       gradientUnits="userSpaceOnUse">
      <stop
         offset="0"
         stop-color="#FFD43B"
         id="stop9" />
      <stop
         offset="1"
         stop-color="#FFE873"
         id="stop11" />
    </linearGradient>
    <radialGradient
       id="c"
       cx="1825.678"
       cy="444.45001"
       r="26.743"
       gradientTransform="matrix(0,-0.0635,-0.27913541,0,129.14493,189.71623)"
       gradientUnits="userSpaceOnUse">
      <stop
         offset="0"
         stop-color="#B8B8B8"
         stop-opacity=".498"
         id="stop16" />
      <stop
         offset="1"
         stop-color="#7F7F7F"
         stop-opacity="0"
         id="stop18" />
    </radialGradient>
  </defs>
  <sodipodi:namedview
     inkscape:window-maximized="1"
     inkscape:window-y="-8"
     inkscape:window-x="-8"
     inkscape:window-height="1017"
     inkscape:window-width="1920"
     showgrid="false"
     inkscape:document-rotation="0"
     inkscape:current-layer="layer1"
     inkscape:document-units="mm"
     inkscape:cy="81.66477"
     inkscape:cx="615.99585"
     inkscape:zoom="2.300169"
     inkscape:pageshadow="2"
     inkscape:pageopacity="0.0"
     borderopacity="1.0"
     bordercolor="#666666"
     pagecolor="#ffffff"
     id="base" />
  <metadata
     id="metadata5">
    <rdf:RDF>
      <cc:Work
         rdf:about="">
        <dc:format>image/svg+xml</dc:format>
        <dc:type
           rdf:resource="http://purl.org/dc/dcmitype/StillImage" />
        <dc:title />
      </cc:Work>
    </rdf:RDF>
  </metadata>
  <g
     id="layer1"
     inkscape:groupmode="layer"
     inkscape:label="Layer 1">
    <g
       id="g89"
       inkscape:export-xdpi="96"
       inkscape:export-ydpi="96">
      <path
         inkscape:export-ydpi="96"
         inkscape:export-xdpi="96"
         id="path883-5"
         d="m 103.86667,24.083367 20.25327,-11.70882 20.25328,11.64485 v 23.433726 l -20.18939,11.70884 -20.31716,-11.644837 z"
         style="opacity:0.992;fill:#ffffff;fill-opacity:1;stroke:#ffffff;stroke-width:7.82781;stroke-linecap:round;stroke-linejoin:round;stroke-miterlimit:10;stroke-dasharray:none;stroke-opacity:1;paint-order:stroke fill markers" />
      <g
         id="g70">
        <path
           inkscape:export-ydpi="96"
           inkscape:export-xdpi="96"
           id="path883"
           d="m 104.49652,24.44675 19.62342,-11.34469 19.62343,11.28271 v 22.70497 l -19.56152,11.34471 -19.68533,-11.2827 z"
           style="opacity:1;fill:#ea2d2e;fill-opacity:1;stroke:#ea2d2e;stroke-width:7.58439;stroke-linecap:round;stroke-linejoin:round;stroke-miterlimit:10;stroke-dasharray:none;stroke-opacity:1;paint-order:stroke fill markers" />
        <g
           inkscape:export-ydpi="96"
           inkscape:export-xdpi="96"
           transform="matrix(1.1542807,0,0,1.1542807,-16.945994,-9.5641078)"
           id="g876">
          <path
             id="path2"
             d="m 117.80728,47.527183 c 0,0 -1.28123,0.745568 0.91333,0.997602 2.65845,0.303533 4.01733,0.259836 6.94654,-0.29378 0,0 0.77211,0.48261 1.84735,0.900846 -6.5685,2.814119 -14.86612,-0.163081 -9.70722,-1.604668 z m -0.80331,-3.673219 c 0,0 -1.43729,1.064707 0.75884,1.291771 2.84025,0.292999 5.08241,0.317189 8.96516,-0.43033 0,0 0.53566,0.544643 1.37954,0.841543 -7.94024,2.322926 -16.78445,0.182979 -11.10354,-1.702984 z"
             fill="#0074bd"
             style="fill:#ffffff;stroke-width:0.390145" />
          <path
             id="path4"
             d="m 123.77026,37.62295 c 1.61951,1.864117 -0.42448,3.540181 -0.42448,3.540181 0,0 4.10941,-2.121221 2.22228,-4.778501 -1.76307,-2.477035 -3.11414,-3.707163 4.20225,-7.950384 3.9e-4,0 -11.4851,2.867568 -6.00005,9.188704 z"
             fill="#ea2d2e"
             style="fill:#ffffff;stroke-width:0.390145" />
          <path
             id="path6"
             d="m 132.45764,50.244155 c 0,0 0.94882,0.782243 -1.04482,1.386968 -3.79065,1.148198 -15.77903,1.494647 -19.10892,0.04565 -1.1962,-0.520843 1.04831,-1.243393 1.75408,-1.39516 0.73621,-0.159568 1.15678,-0.130307 1.15678,-0.130307 -1.33118,-0.937526 -8.60465,1.841089 -3.69429,2.638157 13.39136,2.170379 24.41024,-0.977705 20.93717,-2.54531 z M 118.42411,40.048094 c 0,0 -6.09759,1.44861 -2.15907,1.975307 1.66357,0.222383 4.97748,0.171274 8.06665,-0.08778 2.52385,-0.21185 5.05667,-0.664808 5.05667,-0.664808 0,0 -0.88914,0.381561 -1.53327,0.820866 -6.19317,1.628854 -18.15464,0.870023 -14.71082,-0.795119 2.91164,-1.408814 5.27984,-1.248466 5.27984,-1.248466 z m 10.93889,6.113579 c 6.29499,-3.270198 3.38412,-6.41321 1.35263,-5.989902 -0.49665,0.10378 -0.71981,0.193513 -0.71981,0.193513 0,0 0.18531,-0.290268 0.53761,-0.414725 4.01928,-1.412327 7.10962,4.167143 -1.29605,6.376926 0,0 0.0963,-0.0874 0.12563,-0.165812 z"
             fill="#0074bd"
             style="fill:#ffffff;stroke-width:0.390145" />
          <path
             id="path8"
             d="m 125.56845,21.580951 c 0,0 3.48595,3.487509 -3.30687,8.849278 -5.44722,4.302134 -1.24223,6.754588 -0.003,9.557784 -3.17968,-2.869129 -5.51197,-5.394932 -3.94749,-7.745168 2.29757,-3.449666 8.66278,-5.123 7.2567,-10.661894 z"
             fill="#ea2d2e"
             style="fill:#e6e6e6;stroke-width:0.390145" />
          <path
             id="path10"
             d="m 119.04326,55.026559 c 6.04102,0.386243 15.32062,-0.214972 15.54027,-3.073567 0,0 -0.42214,1.083434 -4.99347,1.943315 -5.15693,0.970681 -11.51825,0.85793 -15.29017,0.235258 0,0 0.77248,0.639838 4.74337,0.894994 z"
             fill="#0074bd"
             style="fill:#ffffff;stroke-width:0.390145" />
        </g>
      </g>
    </g>
  </g>
</svg>
