<?xml version="1.0" encoding="UTF-8" standalone="no"?>
<svg
   xmlns:dc="http://purl.org/dc/elements/1.1/"
   xmlns:cc="http://creativecommons.org/ns#"
   xmlns:rdf="http://www.w3.org/1999/02/22-rdf-syntax-ns#"
   xmlns:svg="http://www.w3.org/2000/svg"
   xmlns="http://www.w3.org/2000/svg"
   xmlns:sodipodi="http://sodipodi.sourceforge.net/DTD/sodipodi-0.dtd"
   xmlns:inkscape="http://www.inkscape.org/namespaces/inkscape"
   width="210mm"
   height="297mm"
   viewBox="0 0 210 297"
   version="1.1"
   id="svg8"
   inkscape:version="1.0.1 (3bc2e813f5, 2020-09-07)"
   sodipodi:docname="js.svg">
  <defs
     id="defs2">
    <pattern
       y="0"
       x="0"
       height="6"
       width="6"
       patternUnits="userSpaceOnUse"
       id="EMFhbasepattern" />
    <linearGradient
       gradientUnits="userSpaceOnUse"
       gradientTransform="matrix(0.14896041,0,0,-0.15028333,-19.60223,229.4675)"
       y2="1151.089"
       y1="1237.476"
       x2="170.659"
       x1="70.251999"
       id="a">
      <stop
         id="stop2"
         stop-color="#5A9FD4"
         offset="0" />
      <stop
         id="stop4"
         stop-color="#306998"
         offset="1" />
    </linearGradient>
    <linearGradient
       gradientUnits="userSpaceOnUse"
       gradientTransform="matrix(0.14896041,0,0,-0.15028333,-19.60223,229.4675)"
       y2="1149.537"
       y1="1098.811"
       x2="173.62"
       x1="209.474"
       id="b">
      <stop
         id="stop9"
         stop-color="#FFD43B"
         offset="0" />
      <stop
         id="stop11"
         stop-color="#FFE873"
         offset="1" />
    </linearGradient>
    <radialGradient
       gradientUnits="userSpaceOnUse"
       gradientTransform="matrix(0,-0.0635,-0.27913541,0,129.14493,189.71623)"
       r="26.743"
       cy="444.45001"
       cx="1825.678"
       id="c">
      <stop
         id="stop16"
         stop-opacity=".498"
         stop-color="#B8B8B8"
         offset="0" />
      <stop
         id="stop18"
         stop-opacity="0"
         stop-color="#7F7F7F"
         offset="1" />
    </radialGradient>
  </defs>
  <sodipodi:namedview
     id="base"
     pagecolor="#ffffff"
     bordercolor="#666666"
     borderopacity="1.0"
     inkscape:pageopacity="0.0"
     inkscape:pageshadow="2"
     inkscape:zoom="1.6264651"
     inkscape:cx="536.19904"
     inkscape:cy="149.47456"
     inkscape:document-units="mm"
     inkscape:current-layer="layer1"
     inkscape:document-rotation="0"
     showgrid="false"
     inkscape:window-width="1920"
     inkscape:window-height="1017"
     inkscape:window-x="-8"
     inkscape:window-y="-8"
     inkscape:window-maximized="1" />
  <metadata
     id="metadata5">
    <rdf:RDF>
      <cc:Work
         rdf:about="">
        <dc:format>image/svg+xml</dc:format>
        <dc:type
           rdf:resource="http://purl.org/dc/dcmitype/StillImage" />
        <dc:title />
      </cc:Work>
    </rdf:RDF>
  </metadata>
  <g
     inkscape:label="Layer 1"
     inkscape:groupmode="layer"
     id="layer1">
    <g
       id="g73"
       inkscape:export-xdpi="96"
       inkscape:export-ydpi="96">
      <path
         inkscape:export-ydpi="96"
         inkscape:export-xdpi="96"
         id="path883-5"
         d="m 102.6534,28.535701 20.25327,-11.70882 20.25328,11.64485 V 51.905457 L 122.97056,63.614297 102.6534,51.96946 Z"
         style="opacity:0.992;fill:#ffffff;fill-opacity:1;stroke:#ffffff;stroke-width:7.82781;stroke-linecap:round;stroke-linejoin:round;stroke-miterlimit:10;stroke-dasharray:none;stroke-opacity:1;paint-order:stroke fill markers" />
      <g
         id="g62">
        <path
           style="opacity:1;fill:#f7df1e;fill-opacity:1;stroke:#f7df1e;stroke-width:7.58439;stroke-linecap:round;stroke-linejoin:round;stroke-miterlimit:10;stroke-dasharray:none;stroke-opacity:1;paint-order:stroke fill markers"
           d="m 103.28325,28.899084 19.62342,-11.34469 19.62343,11.28271 v 22.70497 l -19.56152,11.34471 -19.68533,-11.2827 z"
           id="path883"
           inkscape:export-xdpi="96"
           inkscape:export-ydpi="96" />
        <path
           inkscape:export-ydpi="96"
           inkscape:export-xdpi="96"
           style="fill:#ffffff;stroke-width:0.104021"
           d="m 109.592,26.905914 h 26.62935 v 26.62935 h -26.62934 z"
           fill="#f7df1e"
           id="path2-6" />
        <path
           inkscape:export-ydpi="96"
           inkscape:export-xdpi="96"
           style="fill:#f7df1e;fill-opacity:1;stroke-width:0.119907"
           d="m 115.62975,50.524436 2.34898,-1.421618 c 0.45325,0.803497 0.86549,1.48337 1.85437,1.48337 0.94786,0 1.54559,-0.370752 1.54559,-1.81299 v -9.808157 h 2.8846 v 9.848923 c 0,2.987726 -1.75135,4.347712 -4.30657,4.347712 -2.30761,0 -3.64709,-1.195116 -4.32709,-2.637474 m 10.20049,-0.308886 2.34874,-1.35986 c 0.61836,1.009733 1.42198,1.751478 2.8436,1.751478 1.19535,0 1.95748,-0.597614 1.95748,-1.421858 0,-0.988993 -0.78299,-1.33936 -2.10173,-1.916115 l -0.721,-0.30936 c -2.08123,-0.885749 -3.46172,-1.998487 -3.46172,-4.347467 0,-2.163603 1.64836,-3.812083 4.22408,-3.812083 1.83386,0 3.1526,0.638867 4.10035,2.307847 l -2.2461,1.442484 c -0.49462,-0.885995 -1.03012,-1.236242 -1.85437,-1.236242 -0.84486,0 -1.3806,0.535743 -1.3806,1.236242 0,0.86537 0.53574,1.215856 1.77198,1.751599 l 0.72112,0.309007 c 2.4521,1.050979 3.83259,2.122351 3.83259,4.532962 0,2.596468 -2.03986,4.01808 -4.78033,4.01808 -2.67861,0 -4.40946,-1.277488 -5.25421,-2.946594"
           id="path4-1" />
      </g>
    </g>
  </g>
</svg>
