<?xml version="1.0" encoding="UTF-8" standalone="no"?>
<svg
   xmlns:dc="http://purl.org/dc/elements/1.1/"
   xmlns:cc="http://creativecommons.org/ns#"
   xmlns:rdf="http://www.w3.org/1999/02/22-rdf-syntax-ns#"
   xmlns:svg="http://www.w3.org/2000/svg"
   xmlns="http://www.w3.org/2000/svg"
   xmlns:sodipodi="http://sodipodi.sourceforge.net/DTD/sodipodi-0.dtd"
   xmlns:inkscape="http://www.inkscape.org/namespaces/inkscape"
   inkscape:export-ydpi="96"
   inkscape:export-xdpi="96"
   inkscape:export-filename="C:\Users\felip\Documents\GitHub\Python-Exercicios\felipeyamane\images\java.png"
   sodipodi:docname="linux.svg"
   inkscape:version="1.0 (4035a4fb49, 2020-05-01)"
   id="svg8"
   version="1.1"
   viewBox="0 0 210 297"
   height="297mm"
   width="210mm">
  <defs
     id="defs2">
    <pattern
       id="EMFhbasepattern"
       patternUnits="userSpaceOnUse"
       width="6"
       height="6"
       x="0"
       y="0" />
    <linearGradient
       id="a"
       x1="70.251999"
       x2="170.659"
       y1="1237.476"
       y2="1151.089"
       gradientTransform="matrix(0.14896041,0,0,-0.15028333,-19.60223,229.4675)"
       gradientUnits="userSpaceOnUse">
      <stop
         offset="0"
         stop-color="#5A9FD4"
         id="stop2" />
      <stop
         offset="1"
         stop-color="#306998"
         id="stop4" />
    </linearGradient>
    <linearGradient
       id="b"
       x1="209.474"
       x2="173.62"
       y1="1098.811"
       y2="1149.537"
       gradientTransform="matrix(0.14896041,0,0,-0.15028333,-19.60223,229.4675)"
       gradientUnits="userSpaceOnUse">
      <stop
         offset="0"
         stop-color="#FFD43B"
         id="stop9" />
      <stop
         offset="1"
         stop-color="#FFE873"
         id="stop11" />
    </linearGradient>
    <radialGradient
       id="c"
       cx="1825.678"
       cy="444.45001"
       r="26.743"
       gradientTransform="matrix(0,-0.0635,-0.27913541,0,129.14493,189.71623)"
       gradientUnits="userSpaceOnUse">
      <stop
         offset="0"
         stop-color="#B8B8B8"
         stop-opacity=".498"
         id="stop16" />
      <stop
         offset="1"
         stop-color="#7F7F7F"
         stop-opacity="0"
         id="stop18" />
    </radialGradient>
  </defs>
  <sodipodi:namedview
     inkscape:window-maximized="1"
     inkscape:window-y="-8"
     inkscape:window-x="-8"
     inkscape:window-height="1017"
     inkscape:window-width="1920"
     showgrid="false"
     inkscape:document-rotation="0"
     inkscape:current-layer="layer1"
     inkscape:document-units="mm"
     inkscape:cy="101.66099"
     inkscape:cx="396.85039"
     inkscape:zoom="1.6126984"
     inkscape:pageshadow="2"
     inkscape:pageopacity="0.0"
     borderopacity="1.0"
     bordercolor="#666666"
     pagecolor="#ffffff"
     id="base" />
  <metadata
     id="metadata5">
    <rdf:RDF>
      <cc:Work
         rdf:about="">
        <dc:format>image/svg+xml</dc:format>
        <dc:type
           rdf:resource="http://purl.org/dc/dcmitype/StillImage" />
        <dc:title></dc:title>
      </cc:Work>
    </rdf:RDF>
  </metadata>
  <g
     id="layer1"
     inkscape:groupmode="layer"
     inkscape:label="Layer 1">
    <path
       inkscape:export-ydpi="96"
       inkscape:export-xdpi="96"
       id="path883"
       d="m 104.49652,24.44675 19.62342,-11.34469 19.62343,11.28271 v 22.70497 l -19.56152,11.34471 -19.68533,-11.2827 z"
       style="opacity:1;fill:#000000;fill-opacity:1;stroke:#000000;stroke-width:7.58439;stroke-linecap:round;stroke-linejoin:round;stroke-miterlimit:10;stroke-dasharray:none;stroke-opacity:1;paint-order:stroke fill markers" />
    <g
       inkscape:export-ydpi="96"
       inkscape:export-xdpi="96"
       transform="translate(-0.02249213,0.5035484)"
       id="g909">
      <path
         d="m 117.67245,31.840549 c -0.57663,1.345484 -4.61308,5.574147 -4.22866,9.802809 1.53769,17.683499 6.91963,5.766359 14.99253,10.187233 0,0 14.4159,-8.072901 2.88318,-21.143314 -3.2676,-4.613086 -0.38442,-8.265114 -2.49876,-11.340504 -2.11433,-3.075392 -5.76636,-3.267604 -8.45732,-0.384425 -2.69097,2.88318 1.15327,7.111843 -2.69097,12.878201"
         id="path4-9"
         style="fill:#ffffff;stroke-width:0.192212" />
      <path
         fill="#eeeeee"
         d="m 131.89614,40.682299 c 0,0 1.7299,-3.459816 -1.5377,-5.958571 3.07539,3.267603 1.15327,6.150783 1.15327,6.150783 h -0.57663 c -0.19222,-6.727419 -1.92212,-3.075392 -4.42088,-14.992532 2.88318,-3.267603 -2.69097,-6.150783 -2.69097,-0.768848 h -1.7299 c 0.19221,-4.613087 -3.84424,-2.306543 -1.5377,0.96106 -0.19221,7.111842 -4.42088,9.995021 -4.42088,14.992531 -1.34548,-3.459815 1.15328,-6.150782 1.15328,-6.150782 0,0 -3.45982,2.883179 -1.34548,7.111842 2.11433,4.228663 5.95856,3.267603 3.2676,5.189723 4.22866,2.883179 10.76386,0.961059 10.57166,-5.189723 0.1922,-1.537696 4.22866,-0.96106 4.61308,-0.576636 0.38442,0.384424 -0.57663,-0.768847 -2.49875,-0.768847 M 121.13227,25.689767 c -1.34549,-0.384424 -0.96106,-2.114332 -0.38443,-2.114332 0.57664,0 1.5377,1.345484 0.38443,2.114332 m 3.65202,0.192212 c -0.96106,-1.345484 -0.19221,-2.690968 0.76885,-2.498756 0.96106,0.192212 0.96106,2.498756 -0.76885,2.498756"
         id="path6-7"
         style="fill:#000000;stroke-width:0.192212" />
      <path
         d="m 121.90111,26.266403 c -0.38442,0 0.19222,-0.384424 0.38443,-0.192212 m 1.34548,0.192212 c 0.19221,-0.192212 -0.19221,-0.384424 -0.57664,-0.192212"
         id="path12"
         style="stroke-width:0.192212" />
      <path
         style="fill:#000000;stroke:#000000;stroke-width:0;stroke-linecap:butt;stroke-linejoin:miter;stroke-miterlimit:4;stroke-dasharray:none;stroke-opacity:1"
         d="m 120.97621,27.829438 -0.42095,0.321559 -0.78088,-0.573217 -0.0552,-0.280374 1.20438,-0.152011 z"
         id="path899" />
      <path
         style="opacity:1;fill:#ffcc87;fill-opacity:1;stroke:#000000;stroke-width:0.192212;stroke-opacity:1"
         sodipodi:nodetypes="cccscscccccccccssssccc"
         id="path8-1"
         d="m 115.94254,42.604417 4.03645,5.766359 c 2.11433,1.345484 0.96106,6.727418 -4.8053,4.036451 -3.2676,-0.96106 -5.95857,-0.768848 -6.34299,-2.498755 -0.38443,-1.729908 0.76885,-1.92212 0.57663,-2.690968 -0.76884,-4.228663 2.69097,-2.114331 3.65203,-4.228663 0.96106,-2.114331 0.96106,-3.075391 2.88318,-0.384424 m 21.52774,2.690968 c -0.76885,-1.153272 0,-3.267603 -2.69097,-3.075391 -1.15327,2.306543 -4.42087,4.613086 -4.61309,0 -1.92212,0 -0.57663,4.613086 -1.34548,6.727418 -1.72991,5.189722 3.2676,5.574146 5.38194,3.075391 l 4.99751,-3.459815 c 0.38442,-0.576636 0.96106,-1.153272 -1.72991,-3.267603 m -17.6959,-17.717606 c -0.57664,-1.153272 2.12673,-2.656861 3.08779,-2.656861 0.96106,0 2.30654,0.768848 3.65203,1.153272 1.34548,0.384424 0.76885,1.729907 0.38442,1.922119 -0.38442,0.192212 -2.49875,1.92212 -4.03645,1.92212 -1.5377,0 -1.96885,-1.609588 -3.12212,-2.378436 m 0.007,-0.02627 c 1.5377,1.153272 3.30688,2.020281 6.7667,-0.670686" />
    </g>
  </g>
</svg>
