<?xml version="1.0" encoding="UTF-8" standalone="no"?>
<svg
   xmlns:dc="http://purl.org/dc/elements/1.1/"
   xmlns:cc="http://creativecommons.org/ns#"
   xmlns:rdf="http://www.w3.org/1999/02/22-rdf-syntax-ns#"
   xmlns:svg="http://www.w3.org/2000/svg"
   xmlns="http://www.w3.org/2000/svg"
   xmlns:sodipodi="http://sodipodi.sourceforge.net/DTD/sodipodi-0.dtd"
   xmlns:inkscape="http://www.inkscape.org/namespaces/inkscape"
   width="210mm"
   height="297mm"
   viewBox="0 0 210 297"
   version="1.1"
   id="svg8"
   inkscape:version="1.0.1 (3bc2e813f5, 2020-09-07)"
   sodipodi:docname="mysql.svg">
  <defs
     id="defs2">
    <pattern
       y="0"
       x="0"
       height="6"
       width="6"
       patternUnits="userSpaceOnUse"
       id="EMFhbasepattern" />
  </defs>
  <sodipodi:namedview
     id="base"
     pagecolor="#ffffff"
     bordercolor="#666666"
     borderopacity="1.0"
     inkscape:pageopacity="0.0"
     inkscape:pageshadow="2"
     inkscape:zoom="1.1500845"
     inkscape:cx="357.06115"
     inkscape:cy="452.68024"
     inkscape:document-units="mm"
     inkscape:current-layer="layer1"
     inkscape:document-rotation="0"
     showgrid="false"
     inkscape:window-width="1920"
     inkscape:window-height="1017"
     inkscape:window-x="-8"
     inkscape:window-y="-8"
     inkscape:window-maximized="1" />
  <metadata
     id="metadata5">
    <rdf:RDF>
      <cc:Work
         rdf:about="">
        <dc:format>image/svg+xml</dc:format>
        <dc:type
           rdf:resource="http://purl.org/dc/dcmitype/StillImage" />
        <dc:title />
      </cc:Work>
    </rdf:RDF>
  </metadata>
  <g
     inkscape:label="Layer 1"
     inkscape:groupmode="layer"
     id="layer1">
    <g
       id="g908"
       inkscape:export-xdpi="96"
       inkscape:export-ydpi="96">
      <path
         inkscape:export-ydpi="96"
         inkscape:export-xdpi="96"
         id="path883-5"
         d="m 77.425961,47.768724 20.253269,-11.70882 20.25328,11.64485 V 71.13848 L 97.743121,82.84732 77.425961,71.202483 Z"
         style="opacity:0.992;fill:#ffffff;fill-opacity:1;stroke:#ffffff;stroke-width:7.82781;stroke-linecap:round;stroke-linejoin:round;stroke-miterlimit:10;stroke-dasharray:none;stroke-opacity:1;paint-order:stroke fill markers" />
      <path
         style="fill:#1e4c68;fill-opacity:1;stroke:#1e4c68;stroke-width:7.58439;stroke-linecap:round;stroke-linejoin:round;stroke-miterlimit:10;stroke-dasharray:none;stroke-opacity:1;paint-order:stroke fill markers"
         d="m 78.055811,48.132107 19.62342,-11.34469 19.623429,11.28271 v 22.70497 l -19.561519,11.34471 -19.68533,-11.2827 z"
         id="path883"
         inkscape:export-xdpi="96"
         inkscape:export-ydpi="96" />
      <path
         id="path2"
         d="m 112.42041,73.569906 -0.62825,-0.598558 c -0.31036,-0.40936 -0.64059,-0.771698 -1.0005,-1.101897 l -0.005,-0.0051 q -0.55403,-0.503337 -1.15138,-0.957204 -0.47858,-0.328965 -1.31581,-0.792722 c -0.459,-0.206503 -0.81746,-0.568878 -1.01162,-1.019034 l -0.005,-0.01262 -0.0594,-0.02945 c 0.26222,-0.02618 0.5021,-0.07418 0.73211,-0.142187 l -0.028,0.0075 0.70491,-0.194163 c 0.29213,-0.09152 0.62951,-0.150881 0.97946,-0.164483 h 0.009 c 0.36879,-0.01496 0.71608,-0.07422 1.04752,-0.171914 l -0.0327,0.0075 q 0.23978,-0.05936 0.4934,-0.134801 0.25334,-0.07544 0.43423,-0.134802 v -0.209027 q -0.17949,-0.268388 -0.43423,-0.613404 c -0.16219,-0.220151 -0.34402,-0.411837 -0.54785,-0.578773 l -0.005,-0.0051 q -0.77787,-0.687601 -1.6114,-1.330685 c -0.48976,-0.382157 -1.04504,-0.771698 -1.62132,-1.132812 l -0.0841,-0.04945 c -0.30429,-0.200333 -0.65298,-0.385849 -1.02032,-0.537963 l -0.0421,-0.01496 q -0.55268,-0.225183 -1.09067,-0.493543 c -0.12012,-0.05936 -0.25988,-0.111291 -0.40431,-0.147188 l -0.014,-0.0025 c -0.14443,-0.02942 -0.2683,-0.103832 -0.35851,-0.208953 l -0.001,-0.0012 c -0.1706,-0.225059 -0.32017,-0.481075 -0.4389,-0.753147 l -0.009,-0.02477 q -0.17948,-0.419223 -0.38842,-0.805095 -0.44918,-0.868162 -0.86817,-1.764767 -0.41927,-0.896604 -0.80512,-1.795681 -0.26829,-0.598559 -0.4934,-1.195884 c -0.16593,-0.437779 -0.35243,-0.812508 -0.57015,-1.164965 l 0.014,0.02851 c -0.53425,-0.910229 -1.067242,-1.686877 -1.646039,-2.425183 l 0.03272,0.04698 c -0.57258,-0.722227 -1.166194,-1.367784 -1.804351,-1.966343 l -0.0093,-0.0089 C 96.732976,50.380018 96.055274,49.816085 95.3442,49.2942 L 95.28344,49.25073 Q 94.174778,48.445617 92.858918,47.665263 C 92.506489,47.457498 92.09713,47.288061 91.66552,47.179238 l -0.03272,-0.0075 -1.376436,-0.343782 -0.777914,-0.05936 q -0.38842,-0.02945 -0.777868,-0.02945 c -0.183226,-0.09647 -0.340276,-0.211457 -0.478584,-0.345044 -0.136017,-0.129847 -0.283252,-0.252262 -0.436563,-0.364815 l -0.01402,-0.0089 C 87.023228,45.583866 86.15384,45.18442 85.244863,44.8703 l -0.105168,-0.03225 c -0.238848,-0.139757 -0.525604,-0.221367 -0.831058,-0.221367 -0.217814,0 -0.426748,0.04207 -0.617125,0.117508 l 0.0093,-0.0037 c -0.469937,0.186732 -0.828581,0.566411 -0.983155,1.038824 l -0.0037,0.01215 c -0.09021,0.212719 -0.142093,0.458812 -0.142093,0.71852 0,0.45512 0.160789,0.871869 0.429084,1.197123 l -0.0025,-0.0037 q 0.672746,0.896604 1.031392,1.409832 0.268295,0.359861 0.554071,0.748201 c 0.174344,0.232491 0.329058,0.498388 0.453857,0.779116 l 0.0093,0.02618 c 0.06918,0.147142 0.129942,0.322795 0.174346,0.503338 l 0.0037,0.01963 q 0.05936,0.25474 0.149573,0.554038 0.268293,0.687601 0.508263,1.409833 c 0.174346,0.525596 0.367386,0.970806 0.591137,1.394992 l -0.02337,-0.04945 q 0.179486,0.328965 0.359907,0.64308 0.180421,0.314101 0.38842,0.613399 c 0.0804,0.1212 0.181823,0.221366 0.298209,0.299284 l 0.0037,0.0025 c 0.122462,0.08904 0.202856,0.228799 0.208934,0.387111 v 0.0012 c -0.141159,0.207765 -0.236045,0.456335 -0.268295,0.724704 l -0.0013,0.0075 c -0.04207,0.312886 -0.105168,0.591141 -0.189302,0.859501 l 0.0093,-0.03693 c -0.275773,0.823641 -0.434226,1.773423 -0.434226,2.75907 0,0.319055 0.01402,0.633189 0.04955,0.943598 l -0.0037,-0.03833 c 0.07432,1.184755 0.431422,2.273045 1.004189,3.215409 l -0.0187,-0.03085 c 0.243522,0.364815 0.504571,0.682656 0.792731,0.973279 0.207531,0.232491 0.509526,0.378417 0.845923,0.378417 0.1879,0 0.365984,-0.04581 0.521866,-0.12737 l -0.0047,0.0025 c 0.432824,-0.155883 0.740755,-0.551603 0.763004,-1.022783 v -0.0025 c 0.05936,-0.586191 0.148637,-1.110549 0.270632,-1.622543 l -0.01402,0.08287 c 0.02805,-0.07792 0.04721,-0.166959 0.04721,-0.260956 0,-0.0187 -0.0013,-0.03693 -0.0025,-0.05567 v 0.0025 q -0.01402,-0.134802 0.164529,-0.25474 v 0.05936 q 0.179486,0.419223 0.373462,0.837244 0.193976,0.418006 0.403377,0.837243 c 0.365049,0.555276 0.75188,1.040062 1.177318,1.486507 l -0.0037,-0.0037 c 0.426747,0.460074 0.891636,0.873108 1.39373,1.237933 l 0.02805,0.0187 c 0.262218,0.200333 0.492185,0.416792 0.69995,0.652975 l 0.0047,0.0051 c 0.195378,0.230013 0.429085,0.419222 0.692565,0.56146 l 0.01402,0.0061 v -0.02945 h 0.05936 c -0.04814,-0.107599 -0.126202,-0.194163 -0.222489,-0.253525 l -0.0025,-0.0012 c -0.09769,-0.05441 -0.181823,-0.108813 -0.260816,-0.168175 l 0.0047,0.0037 q -0.268294,-0.268342 -0.554024,-0.598559 -0.285589,-0.33018 -0.523127,-0.628244 -0.628249,-0.868158 -1.198352,-1.814229 -0.57015,-0.946075 -1.0772,-1.923061 -0.239781,-0.478602 -0.463673,-0.986885 -0.223891,-0.508283 -0.434226,-0.98688 c -0.06076,-0.122416 -0.10283,-0.263434 -0.118723,-0.413053 v -0.0061 c -0.0093,-0.142234 -0.08881,-0.264649 -0.207531,-0.32775 l -0.0025,-0.0012 c -0.149572,0.25474 -0.315504,0.474891 -0.504572,0.674 l 0.0012,-0.0012 c -0.19678,0.206503 -0.357569,0.450165 -0.472413,0.717282 l -0.0047,0.01589 c -0.174345,0.422961 -0.301948,0.913917 -0.35757,1.42715 l -0.0025,0.02337 q -0.08928,0.792717 -0.179487,1.62996 l -0.05936,0.02945 -0.02804,0.02945 c -0.32132,-0.06572 -0.585922,-0.271008 -0.729417,-0.548011 l -0.0024,-0.0061 Q 88.459897,64.053834 88.281812,63.634598 C 87.97519,62.846825 87.784673,61.935381 87.758685,60.983121 v -0.01122 c -0.0093,-0.15088 -0.01402,-0.327749 -0.01402,-0.504571 0,-0.823637 0.129941,-1.617598 0.369723,-2.362087 l -0.01402,0.05441 q 0.08881,-0.328964 0.38842,-1.10808 0.299144,-0.779116 0.120125,-1.077161 c -0.0617,-0.204073 -0.176682,-0.37594 -0.327656,-0.507045 l -0.0013,-0.0012 c -0.150972,-0.131125 -0.287923,-0.268358 -0.414126,-0.414284 l -0.0037,-0.0051 q -0.208933,-0.301762 -0.403378,-0.643076 -0.193976,-0.341351 -0.343548,-0.67276 c -0.204257,-0.472419 -0.413192,-1.064794 -0.586228,-1.673248 l -0.02804,-0.110075 c -0.196781,-0.698735 -0.41553,-1.289876 -0.675224,-1.858755 l 0.03272,0.07913 c -0.137464,-0.311661 -0.296851,-0.581284 -0.482367,-0.827386 l 0.0093,0.0098 q -0.301949,-0.40319 -0.539207,-0.763055 -0.301947,-0.388327 -0.598568,-0.748201 C 84.046137,47.595541 83.86665,47.320979 83.72077,47.026649 l -0.0093,-0.02477 c -0.05936,-0.119985 -0.111244,-0.259694 -0.147235,-0.404405 l -0.0025,-0.01356 c -0.01402,-0.04347 -0.0187,-0.094 -0.0187,-0.144711 0,-0.101428 0.02805,-0.19664 0.0818,-0.275773 l -0.0013,0.0025 c 0.01402,-0.06927 0.04674,-0.129847 0.09021,-0.179299 0.04814,-0.04347 0.110309,-0.07544 0.176682,-0.08904 h 0.0025 c 0.105168,-0.06801 0.232304,-0.108814 0.371126,-0.108814 0.103765,0 0.203791,0.02337 0.291665,0.06553 l -0.0037,-0.0012 c 0.270632,0.07666 0.489708,0.153358 0.703643,0.241138 l -0.04674,-0.01589 q 0.567625,0.239923 1.047471,0.463767 c 0.368788,0.175606 0.682656,0.361122 0.979462,0.567639 l -0.02337,-0.01496 q 0.239782,0.149619 0.478583,0.328965 0.238848,0.179299 0.508311,0.359861 h 0.419268 q 0.478584,0 1.016575,0.04581 c 0.362245,0.02851 0.697473,0.09647 1.01653,0.20281 l -0.02804,-0.0089 c 0.594876,0.176869 1.105617,0.385849 1.590418,0.636901 l -0.05095,-0.02337 q 0.73337,0.373462 1.3913,0.792722 c 0.728415,0.453857 1.357879,0.918862 1.950277,1.427145 l -0.02337,-0.01729 c 0.618341,0.529302 1.179795,1.072216 1.706616,1.646039 l 0.01402,0.01496 c 0.514482,0.56146 1.005451,1.171153 1.454354,1.810521 l 0.03739,0.0581 c 0.413192,0.583718 0.829844,1.258956 1.204522,1.958925 l 0.05188,0.105121 c 0.100032,0.190471 0.201462,0.424177 0.289332,0.66287 l 0.014,0.04067 q 0.12013,0.343782 0.2683,0.704914 0.32905,0.748201 0.70495,1.510009 0.3758,0.761802 0.7049,1.481557 l 0.65793,1.435806 c 0.23137,0.502095 0.48971,0.934942 0.79026,1.334393 l -0.014,-0.0187 c 0.251,0.268388 0.58618,0.456335 0.96212,0.521885 l 0.009,0.0012 c 0.45526,0.113769 0.83849,0.2424 1.20947,0.394496 l -0.058,-0.02103 c 0.17669,0.08039 0.40432,0.165698 0.63811,0.241138 l 0.0495,0.01355 c 0.26222,0.0804 0.48971,0.186731 0.69874,0.320318 l -0.009,-0.0061 c 0.40431,0.226321 0.74697,0.448903 1.07346,0.691312 l -0.028,-0.0187 q 0.50826,0.373462 1.01652,0.704914 0.23979,0.179299 0.80512,0.523123 0.56515,0.343782 0.59857,0.64308 c -0.14116,-0.0051 -0.30802,-0.0084 -0.47489,-0.0084 -0.60848,0 -1.20705,0.03973 -1.79323,0.116245 l 0.0692,-0.0075 c -0.66289,0.08904 -1.26393,0.251094 -1.82908,0.482336 l 0.0496,-0.01729 c -0.13976,0.06058 -0.30663,0.116246 -0.47984,0.159528 l -0.0234,0.0051 c -0.17575,0.02617 -0.31177,0.166959 -0.32906,0.342566 v 0.0012 c 0.0752,0.094 0.13601,0.20281 0.17668,0.321533 l 0.003,0.0075 c 0.0421,0.126154 0.0925,0.234968 0.15471,0.336396 l -0.004,-0.0075 c 0.14724,0.260956 0.30569,0.48602 0.48354,0.693785 l -0.005,-0.0061 c 0.17434,0.215197 0.37112,0.401928 0.58865,0.561461 l 0.009,0.0061 q 0.30195,0.239923 0.62825,0.493438 c 0.19912,0.155835 0.42394,0.309193 0.65793,0.447688 l 0.0281,0.01589 c 0.35102,0.215196 0.75931,0.420484 1.18475,0.592379 l 0.057,0.01963 c 0.46274,0.185516 0.85953,0.400666 1.22803,0.656686 l -0.0187,-0.01356 q 0.3599,0.20898 0.71729,0.463767 0.35757,0.254739 0.68761,0.493438 c 0.0902,0.08904 0.16967,0.187993 0.23604,0.295591 l 0.004,0.0061 c 0.11265,0.128632 0.2683,0.216412 0.44498,0.238708 h 0.004 v -0.05936 c -0.10891,-0.08283 -0.1893,-0.197856 -0.22763,-0.33018 l -0.001,-0.0051 c -0.0327,-0.126155 -0.0767,-0.236183 -0.13836,-0.337612 l 0.002,0.0051 z M 89.447555,49.819174 q -0.239783,0 -0.449184,0.01496 c -0.142093,0.0098 -0.274371,0.03599 -0.399637,0.07792 l 0.0093,-0.0037 v 0.02945 h 0.05936 q 0.120125,0.1793 0.301949,0.403143 0.181823,0.223844 0.329058,0.434086 l 0.478584,0.986885 0.05936,-0.02945 c 0.139756,-0.101428 0.247261,-0.237445 0.311764,-0.396973 l 0.0025,-0.0061 c 0.0645,-0.171915 0.101429,-0.372248 0.101429,-0.580012 0,-0.02244 0,-0.0444 -0.0012,-0.06679 v 0.0037 c -0.05562,-0.05441 -0.101429,-0.118723 -0.13368,-0.190471 l -0.0013,-0.0037 -0.100027,-0.225059 c -0.06544,-0.103859 -0.15705,-0.185516 -0.264555,-0.237446 l -0.0037,-0.0012 c -0.116386,-0.05567 -0.21501,-0.126154 -0.301481,-0.20898 z"
         style="fill:#ffffff;stroke-width:1.23669"
         inkscape:export-xdpi="96"
         inkscape:export-ydpi="96" />
    </g>
  </g>
</svg>
