<?xml version="1.0" encoding="UTF-8" standalone="no"?>
<svg
   xmlns:dc="http://purl.org/dc/elements/1.1/"
   xmlns:cc="http://creativecommons.org/ns#"
   xmlns:rdf="http://www.w3.org/1999/02/22-rdf-syntax-ns#"
   xmlns:svg="http://www.w3.org/2000/svg"
   xmlns="http://www.w3.org/2000/svg"
   xmlns:sodipodi="http://sodipodi.sourceforge.net/DTD/sodipodi-0.dtd"
   xmlns:inkscape="http://www.inkscape.org/namespaces/inkscape"
   width="210mm"
   height="297mm"
   viewBox="0 0 210 297"
   version="1.1"
   id="svg8"
   inkscape:version="1.0.1 (3bc2e813f5, 2020-09-07)"
   sodipodi:docname="php.svg">
  <defs
     id="defs2">
    <pattern
       y="0"
       x="0"
       height="6"
       width="6"
       patternUnits="userSpaceOnUse"
       id="EMFhbasepattern" />
    <linearGradient
       gradientUnits="userSpaceOnUse"
       gradientTransform="matrix(0.14896041,0,0,-0.15028333,-19.60223,229.4675)"
       y2="1151.089"
       y1="1237.476"
       x2="170.659"
       x1="70.251999"
       id="a">
      <stop
         id="stop2"
         stop-color="#5A9FD4"
         offset="0" />
      <stop
         id="stop4"
         stop-color="#306998"
         offset="1" />
    </linearGradient>
    <linearGradient
       gradientUnits="userSpaceOnUse"
       gradientTransform="matrix(0.14896041,0,0,-0.15028333,-19.60223,229.4675)"
       y2="1149.537"
       y1="1098.811"
       x2="173.62"
       x1="209.474"
       id="b">
      <stop
         id="stop9"
         stop-color="#FFD43B"
         offset="0" />
      <stop
         id="stop11"
         stop-color="#FFE873"
         offset="1" />
    </linearGradient>
    <radialGradient
       gradientUnits="userSpaceOnUse"
       gradientTransform="matrix(0,-0.0635,-0.27913541,0,129.14493,189.71623)"
       r="26.743"
       cy="444.45001"
       cx="1825.678"
       id="c">
      <stop
         id="stop16"
         stop-opacity=".498"
         stop-color="#B8B8B8"
         offset="0" />
      <stop
         id="stop18"
         stop-opacity="0"
         stop-color="#7F7F7F"
         offset="1" />
    </radialGradient>
  </defs>
  <sodipodi:namedview
     id="base"
     pagecolor="#ffffff"
     bordercolor="#666666"
     borderopacity="1.0"
     inkscape:pageopacity="0.0"
     inkscape:pageshadow="2"
     inkscape:zoom="2.300169"
     inkscape:cx="554.05175"
     inkscape:cy="130.84694"
     inkscape:document-units="mm"
     inkscape:current-layer="layer1"
     inkscape:document-rotation="0"
     showgrid="false"
     inkscape:window-width="1920"
     inkscape:window-height="1017"
     inkscape:window-x="-8"
     inkscape:window-y="-8"
     inkscape:window-maximized="1"
     showguides="true"
     inkscape:guide-bbox="true">
    <sodipodi:guide
       position="106.93245,260.29962"
       orientation="1,0"
       id="guide858" />
    <sodipodi:guide
       position="129.40625,272.49909"
       orientation="0,-1"
       id="guide860" />
    <sodipodi:guide
       position="138.8809,245.22895"
       orientation="1,0"
       id="guide864" />
    <sodipodi:guide
       position="134.32369,241.18277"
       orientation="0,-1"
       id="guide866" />
    <sodipodi:guide
       position="142.63444,262.43416"
       orientation="1,0"
       id="guide874" />
    <sodipodi:guide
       position="103.17992,258.4657"
       orientation="1,0"
       id="guide876" />
  </sodipodi:namedview>
  <metadata
     id="metadata5">
    <rdf:RDF>
      <cc:Work
         rdf:about="">
        <dc:format>image/svg+xml</dc:format>
        <dc:type
           rdf:resource="http://purl.org/dc/dcmitype/StillImage" />
        <dc:title />
      </cc:Work>
    </rdf:RDF>
  </metadata>
  <g
     inkscape:label="Layer 1"
     inkscape:groupmode="layer"
     id="layer1">
    <g
       id="g928"
       inkscape:export-xdpi="96"
       inkscape:export-ydpi="96">
      <path
         inkscape:export-ydpi="96"
         inkscape:export-xdpi="96"
         id="path883-5"
         d="m 102.66719,28.535701 20.25327,-11.70882 20.25328,11.64485 V 51.905457 L 122.98435,63.614297 102.66719,51.96946 Z"
         style="opacity:0.992;fill:#ffffff;fill-opacity:1;stroke:#ffffff;stroke-width:7.82781;stroke-linecap:round;stroke-linejoin:round;stroke-miterlimit:10;stroke-dasharray:none;stroke-opacity:1;paint-order:stroke fill markers" />
      <g
         id="g908">
        <path
           style="opacity:1;fill:#8892bf;fill-opacity:1;stroke:#8892bf;stroke-width:7.58439;stroke-linecap:round;stroke-linejoin:round;stroke-miterlimit:10;stroke-dasharray:none;stroke-opacity:1;paint-order:stroke fill markers"
           d="m 103.29704,28.899084 19.62342,-11.34469 19.62343,11.28271 v 22.70497 l -19.56152,11.34471 -19.68533,-11.2827 z"
           id="path883"
           inkscape:export-xdpi="96"
           inkscape:export-ydpi="96" />
        <path
           d="m 122.92047,29.639703 c -10.95287,0 -19.53397,4.647452 -19.53397,10.580886 0,5.933432 8.5811,10.580885 19.53397,10.580885 10.95285,0 19.53396,-4.647453 19.53396,-10.580885 0,-5.933434 -8.58111,-10.580886 -19.53396,-10.580886 z m -2.02827,3.255651 h 2.13247 l -0.67637,3.255649 h 1.90453 c 1.20786,0 2.01853,0.168577 2.48002,0.591741 0.45091,0.415904 0.58767,1.099592 0.40695,2.031531 l -0.84648,3.888059 h -2.16827 l 0.77894,-3.59588 c 0.096,-0.492411 0.057,-0.835899 -0.10743,-1.017397 -0.16518,-0.181496 -0.52822,-0.270091 -1.07191,-0.270091 h -1.70677 l -1.03045,4.883491 h -2.13652 z m -9.36656,3.255649 h 4.3398 c 2.06981,0 3.32241,1.386112 2.83242,3.45588 -0.56891,2.404307 -2.09418,3.055451 -4.89896,3.055451 h -1.34131 l -0.4265,2.441745 h -2.15525 z m 17.09223,0 h 4.33979 c 2.0698,0 3.32239,1.386112 2.83242,3.45588 -0.56811,2.404307 -2.09418,3.055451 -4.89813,3.055451 h -1.34134 l -0.4265,2.441745 h -2.15522 z m -15.24462,1.62784 -0.6137,3.25565 h 1.39181 c 1.2054,0 2.32453,-0.136899 2.51172,-1.933032 0.0702,-0.695901 -0.21903,-1.322618 -1.61152,-1.322618 z m 17.09222,0 -0.6137,3.25565 h 1.3918 c 1.20541,0 2.32453,-0.136899 2.51255,-1.933032 0.0692,-0.695901 -0.21964,-1.322618 -1.61236,-1.322618 z"
           id="surface1"
           style="stroke-width:0.813914;fill:#ffffff" />
      </g>
    </g>
  </g>
</svg>
