<?xml version="1.0" encoding="UTF-8" standalone="no"?>
<svg
   xmlns:dc="http://purl.org/dc/elements/1.1/"
   xmlns:cc="http://creativecommons.org/ns#"
   xmlns:rdf="http://www.w3.org/1999/02/22-rdf-syntax-ns#"
   xmlns:svg="http://www.w3.org/2000/svg"
   xmlns="http://www.w3.org/2000/svg"
   xmlns:sodipodi="http://sodipodi.sourceforge.net/DTD/sodipodi-0.dtd"
   xmlns:inkscape="http://www.inkscape.org/namespaces/inkscape"
   sodipodi:docname="postgressql.svg"
   inkscape:version="1.0 (4035a4fb49, 2020-05-01)"
   id="svg8"
   version="1.1"
   viewBox="0 0 210 297"
   height="297mm"
   width="210mm">
  <defs
     id="defs2">
    <pattern
       id="EMFhbasepattern"
       patternUnits="userSpaceOnUse"
       width="6"
       height="6"
       x="0"
       y="0" />
  </defs>
  <sodipodi:namedview
     inkscape:window-maximized="1"
     inkscape:window-y="-8"
     inkscape:window-x="-8"
     inkscape:window-height="1017"
     inkscape:window-width="1920"
     showgrid="false"
     inkscape:document-rotation="0"
     inkscape:current-layer="layer1"
     inkscape:document-units="mm"
     inkscape:cy="233.14054"
     inkscape:cx="364.52926"
     inkscape:zoom="3.2529302"
     inkscape:pageshadow="2"
     inkscape:pageopacity="0.0"
     borderopacity="1.0"
     bordercolor="#666666"
     pagecolor="#ffffff"
     id="base" />
  <metadata
     id="metadata5">
    <rdf:RDF>
      <cc:Work
         rdf:about="">
        <dc:format>image/svg+xml</dc:format>
        <dc:type
           rdf:resource="http://purl.org/dc/dcmitype/StillImage" />
        <dc:title></dc:title>
      </cc:Work>
    </rdf:RDF>
  </metadata>
  <g
     id="layer1"
     inkscape:groupmode="layer"
     inkscape:label="Layer 1">
    <path
       inkscape:export-ydpi="96"
       inkscape:export-xdpi="96"
       id="path883"
       d="m 78.283441,48.462289 19.62342,-11.34469 19.623429,11.28271 v 22.70497 l -19.561519,11.34471 -19.68533,-11.2827 z"
       style="opacity:1;fill:#336791;fill-opacity:1;stroke:#336791;stroke-width:7.58439;stroke-linecap:round;stroke-linejoin:round;stroke-miterlimit:10;stroke-dasharray:none;stroke-opacity:1;paint-order:stroke fill markers" />
    <path
       inkscape:export-ydpi="96"
       inkscape:export-xdpi="96"
       style="fill:#ffffff;stroke-width:0.732282"
       d="m 105.24933,42.982752 c -1.4968,0 -2.79249,0.401765 -3.69026,0.799146 -0.88091,-0.294384 -2.340279,-0.796226 -4.091821,-0.433904 -1.020383,0.176777 -1.95855,0.596071 -2.818904,1.238162 -1.416792,-0.679346 -2.895984,-1.095721 -4.447849,-1.163655 -0.954315,-0.07451 -4.845724,0.365241 -6.242699,2.407664 -0.512394,0.80499 -1.026257,1.826201 -1.24648,3.068018 -0.220215,1.09572 -0.220215,2.339728 0.146825,4.896411 0.220213,1.751691 0.516065,2.92192 1.175277,5.330313 0.07489,0.219158 0.441922,1.389375 1.543059,4.60495 0.217298,0.582193 0.659211,1.677914 1.539387,2.699855 0.588006,0.73048 1.176011,1.1695 1.910102,1.1695 0.954313,0 1.614259,-0.655971 2.202266,-1.386452 0.0426,-0.04894 0.08811,-0.102262 0.132123,-0.151214 -0.05506,0.08548 -0.103517,0.179707 -0.132123,0.296574 -0.146825,0.730482 0.73409,1.314865 1.468179,1.607058 0.587271,0.290732 1.247217,0.365239 1.760349,0.365239 0.659947,0 1.176012,-0.146105 1.468178,-0.217694 0.252536,-0.08548 0.797221,-0.319219 1.380086,-0.704912 0.02497,1.866377 0.0426,4.068777 0.08811,4.57427 0.220962,1.900709 0.734093,3.213382 1.689135,3.943861 0.734092,0.584386 2.05544,0.658893 2.13033,0.658893 1.31914,0 3.3746,-0.876576 4.2555,-2.263027 0.44192,-0.658893 0.58802,-1.244007 0.73408,-2.048268 0.14685,-0.436825 0.2929,-2.993507 0.36706,-3.504114 0.10054,-0.807911 0.17765,-1.604134 0.25544,-2.376983 0.48452,0.125647 1.08131,0.259329 1.72879,0.259329 1.17308,0 2.71612,-0.804258 3.00829,-0.952548 0.58728,-0.436825 1.76036,-1.458036 1.24796,-2.334614 -0.29363,-0.513527 -0.73408,-0.513527 -1.83521,-0.365241 0,0 -1.76182,0.216949 -1.91012,0.143178 -0.10649,-0.04017 -0.27013,-0.143178 -0.45365,-0.27758 0.38172,-0.587306 0.71939,-1.168767 1.11581,-1.691793 a 30.963898,30.811664 0 0 0 1.76328,-4.01764 32.95475,32.792726 0 0 0 1.245,-4.311297 c 0.51608,-2.191442 0.66214,-3.212653 0.36706,-4.382883 -0.58505,-2.045344 -2.71614,-3.798496 -3.5963,-4.308373 -0.58728,-0.294384 -2.05399,-1.170229 -4.25626,-1.170229 z m 0,1.460961 c 1.83522,0 3.08318,0.73048 3.74241,1.021211 0.80893,0.439749 2.6442,1.90071 2.78952,3.287162 0.075,0.80499 0.14684,1.609979 -0.36704,3.726911 -0.29219,1.021212 -0.58727,2.337537 -1.24942,4.163738 -0.36704,1.021213 -0.80604,2.264491 -1.68623,3.799959 -0.0226,0.03723 -0.0492,0.07744 -0.0721,0.116868 0.086,-0.307532 0.14684,-0.555895 0.14684,-0.555895 0.14607,-0.730482 0.14607,-1.315596 0.0714,-2.19144 -0.075,-0.439751 -0.14684,-1.535471 -0.14684,-1.97449 0,-0.21695 0.21878,-2.482905 0.29366,-3.287162 0.0736,-1.312673 -0.73411,-2.921921 -0.95284,-3.213384 -1.10114,-1.680103 -1.68841,-2.627537 -2.86442,-3.577892 a 11.531079,11.474386 0 0 0 -1.47707,-1.07891 c 0.53958,-0.131474 1.13564,-0.236661 1.7721,-0.236661 z m -6.486412,0.299498 c 0.957989,0.02264 1.769152,0.284886 2.374772,0.505491 1.54234,0.510605 2.49445,1.311943 2.93637,1.677184 0.95431,0.80499 1.46817,1.609976 2.5693,3.290082 0.0808,0.160711 0.28922,0.49965 0.45513,0.973 -1.50194,-0.136608 -2.49955,0.388615 -3.09932,0.92479 -0.88018,0.730479 -0.80821,1.826201 -0.73407,2.628267 0,0.584385 0.14901,1.317788 1.25014,3.800692 0.43901,1.095719 0.87797,2.262295 1.31914,3.067286 a 7.0186305,6.984123 0 0 0 0.8119,1.241817 c -0.17543,0.08766 -0.35234,0.202343 -0.51897,0.36524 -0.43898,0.509873 -0.51389,1.024133 -0.65994,1.973756 -0.1461,0.730481 -0.29217,2.26303 -0.36707,3.504116 0,0.511336 -0.21802,2.996431 -0.29214,3.36167 -0.22098,0.730481 -0.29586,1.095721 -0.58803,1.534739 -0.51385,0.802068 -2.12737,1.460961 -3.08316,1.387184 -0.29217,0 -0.73409,0 -1.10114,-0.291462 -0.807493,-0.584386 -1.101137,-1.89998 -1.174544,-2.921924 -0.07488,-0.730479 0,-5.99213 -0.146828,-7.161629 -0.07487,-0.29146 -0.146825,-1.021942 -0.734089,-1.532546 -0.246653,-0.20527 -0.756845,-0.311186 -1.239144,-0.382041 0.0057,-0.24544 0.02055,-0.490884 0.06606,-0.71368 0.07193,-0.439751 0.21802,-0.658895 0.367045,-1.024133 0.07193,-0.216949 0.21802,-0.508416 0.367046,-0.873655 0.659944,-2.045344 0.510927,-4.751045 0.143886,-6.431152 -0.07193,-0.146106 -0.367046,-1.312673 -1.394038,-1.969372 -1.101132,-0.658894 -2.276409,-0.293655 -2.936356,-0.07377 a 4.3069036,4.2857284 0 0 0 -0.811171,0.327986 c 0.0455,-0.305341 0.0859,-0.613603 0.15196,-0.913101 0.292168,-1.460961 0.587272,-2.702778 1.542321,-3.943132 1.02699,-1.24474 2.199334,-2.046808 3.522162,-2.265953 a 5.5460469,5.5187794 0 0 1 1.003503,-0.06573 z m -9.063806,0.128573 c 0.171769,-0.003 0.317863,0 0.42724,0.0116 1.14665,0.05991 2.244849,0.327986 3.334971,0.784536 -0.135063,0.148287 -0.269406,0.296576 -0.398611,0.456552 -1.24795,1.460962 -1.543058,2.992778 -1.835223,4.528248 -0.367048,1.826199 -0.441921,3.72399 -0.14902,5.624701 l -0.143887,1.38645 c -0.07412,0.730479 -0.223152,2.119856 0.58507,3.580814 a 6.3572159,6.3259605 0 0 0 0.940367,1.24693 37.64925,37.464147 0 0 1 -2.334402,2.770715 c -0.440455,0.511334 -0.807502,0.876575 -1.101137,0.876575 -0.0734,0 -0.367044,-0.146104 -0.807498,-0.657431 -0.808967,-0.875117 -1.101134,-1.826204 -1.247954,-2.191442 -0.880907,-2.62973 -1.393303,-4.311296 -1.46818,-4.53044 -0.587271,-2.337538 -0.880907,-3.504114 -1.176008,-5.184951 -0.367048,-2.337535 -0.367048,-3.506305 -0.146078,-4.454469 0.22096,-1.024133 0.588005,-1.829124 0.955049,-2.410585 0.900727,-1.406903 3.37241,-1.806478 4.565301,-1.837889 z m 16.843698,7.698533 c 0.23491,0 0.49037,0.02921 0.75976,0.08548 -0.008,0.68227 -0.29215,2.821848 -0.29215,3.110386 0,0.584386 0.14606,1.751694 0.14606,2.191441 0.075,0.804991 0.075,1.241817 0,1.8262 0,0 -0.10871,0.522294 -0.22023,0.893379 -0.34205,-0.767734 -0.72012,-1.683757 -1.17599,-2.719579 -1.10112,-2.482172 -1.17308,-2.993507 -1.17308,-3.358747 0,-0.513528 0,-1.169501 0.43901,-1.460963 0.41253,-0.365238 0.91468,-0.562469 1.51663,-0.567583 z m -11.395284,0.214024 c 0.146077,0.01684 0.280424,0.05992 0.409622,0.131499 0.588007,0.293654 0.734089,1.024135 0.734089,1.024135 0.367047,1.607055 0.513862,4.017641 -0.07413,5.624699 -0.07193,0.290732 -0.21802,0.509876 -0.2929,0.73048 -0.146078,0.365242 -0.292168,0.730481 -0.441188,1.386452 -0.03741,0.270289 -0.05506,0.539095 -0.06312,0.807181 -0.507989,-0.1052 -0.986618,-0.284889 -1.330902,-0.513527 -0.587275,-0.290733 -1.026259,-0.804991 -1.31916,-1.389375 -0.516066,-1.09572 -0.441188,-2.117663 -0.367045,-2.699855 l 0.143886,-1.683027 a 17.971248,17.88289 0 0 1 -0.140946,-2.465373 3.5192255,3.501923 0 0 1 1.391103,-0.74801 c 0.441185,-0.108116 0.923484,-0.259329 1.350722,-0.205271 z m 10.824864,0.490882 a 2.0848145,2.0745642 0 0 0 -0.50502,0.08035 c -0.29217,0.07305 -0.36707,0.07305 -0.44119,0.219129 -0.0722,0.146106 0.14902,0.365243 0.22313,0.511339 0.0722,0 0.29292,0.21913 0.58506,0.147568 0.22099,-0.07377 0.36707,-0.219129 0.44196,-0.293653 0.0743,-0.07451 0.36703,-0.439751 0.14606,-0.584386 -0.075,-0.07451 -0.25839,-0.09204 -0.45001,-0.08035 z m -10.991501,0.53033 a 0.61076251,0.60775968 0 0 0 -0.231977,0.06282 c -0.07193,0 -0.218021,0.07159 -0.2929,0.21695 -0.07413,0.146104 0,0.291459 0.07488,0.365237 0.146078,0.219877 0.367047,0.439749 0.734089,0.439749 0.07412,0 0.367047,0 0.585071,-0.219876 0,0 0.223153,-0.219157 0.223153,-0.436826 -0.07413,-0.148284 -0.220213,-0.219157 -0.441188,-0.293649 -0.166639,-0.05406 -0.413292,-0.151214 -0.651138,-0.1344 z m -1.350726,9.559065 c 0.449999,0.239588 0.992491,0.433907 1.585634,0.568315 -0.157093,0.314107 -0.38393,0.573427 -0.610763,0.74509 -0.516063,0.365241 -1.175278,0.584386 -1.835223,0.73048 -0.149019,0 -0.220212,0.07305 -0.367044,0.07305 -0.355299,0.100806 -0.699588,0.211841 -0.934499,0.454358 0.719407,-0.796221 1.442491,-1.674989 2.161895,-2.571289 z m 14.153997,0.585115 c 0.32151,0.239588 0.63717,0.416375 0.91245,0.511338 0.44118,0.14536 0.80823,0.14536 2.13034,0 -0.22023,0.216231 -0.88091,0.58146 -1.83521,0.730479 -0.61372,0.05917 -1.37644,-0.08619 -1.99599,-0.262972 0.0573,-0.413452 0.1233,-0.650128 0.23269,-0.761891 0.0395,-0.03652 0.28334,-0.111041 0.55571,-0.216948 z m -11.053936,0.21913 c 0.151961,0.02623 0.272347,0.04602 0.295103,0.06937 0.146827,0.148288 0.220962,0.513529 0.220962,0.658898 0.0088,0.125646 0.0147,0.441937 0.01971,0.661812 -0.604889,0.704914 -1.576826,1.095722 -1.783836,1.164386 -0.292168,0.146106 -1.172343,0.290732 -2.052515,0 0.734088,-0.219129 1.468177,-0.436826 2.053246,-0.876577 0.513131,-0.36524 0.954319,-0.946702 1.247219,-1.677181 z"
       id="surface1" />
  </g>
</svg>
