<?xml version="1.0" encoding="UTF-8" standalone="no"?>
<svg
   xmlns:dc="http://purl.org/dc/elements/1.1/"
   xmlns:cc="http://creativecommons.org/ns#"
   xmlns:rdf="http://www.w3.org/1999/02/22-rdf-syntax-ns#"
   xmlns:svg="http://www.w3.org/2000/svg"
   xmlns="http://www.w3.org/2000/svg"
   xmlns:sodipodi="http://sodipodi.sourceforge.net/DTD/sodipodi-0.dtd"
   xmlns:inkscape="http://www.inkscape.org/namespaces/inkscape"
   width="210mm"
   height="297mm"
   viewBox="0 0 210 297"
   version="1.1"
   id="svg8"
   inkscape:version="1.0 (4035a4fb49, 2020-05-01)"
   sodipodi:docname="pycharm.svg">
  <defs
     id="defs2">
    <pattern
       y="0"
       x="0"
       height="6"
       width="6"
       patternUnits="userSpaceOnUse"
       id="EMFhbasepattern" />
    <linearGradient
       gradientUnits="userSpaceOnUse"
       gradientTransform="matrix(0.14896041,0,0,-0.15028333,-19.60223,229.4675)"
       y2="1151.089"
       y1="1237.476"
       x2="170.659"
       x1="70.251999"
       id="a">
      <stop
         id="stop2"
         stop-color="#5A9FD4"
         offset="0" />
      <stop
         id="stop4"
         stop-color="#306998"
         offset="1" />
    </linearGradient>
    <linearGradient
       gradientUnits="userSpaceOnUse"
       gradientTransform="matrix(0.14896041,0,0,-0.15028333,-19.60223,229.4675)"
       y2="1149.537"
       y1="1098.811"
       x2="173.62"
       x1="209.474"
       id="b">
      <stop
         id="stop9"
         stop-color="#FFD43B"
         offset="0" />
      <stop
         id="stop11"
         stop-color="#FFE873"
         offset="1" />
    </linearGradient>
    <radialGradient
       gradientUnits="userSpaceOnUse"
       gradientTransform="matrix(0,-0.0635,-0.27913541,0,129.14493,189.71623)"
       r="26.743"
       cy="444.45001"
       cx="1825.678"
       id="c">
      <stop
         id="stop16"
         stop-opacity=".498"
         stop-color="#B8B8B8"
         offset="0" />
      <stop
         id="stop18"
         stop-opacity="0"
         stop-color="#7F7F7F"
         offset="1" />
    </radialGradient>
  </defs>
  <sodipodi:namedview
     id="base"
     pagecolor="#ffffff"
     bordercolor="#666666"
     borderopacity="1.0"
     inkscape:pageopacity="0.0"
     inkscape:pageshadow="2"
     inkscape:zoom="2.300169"
     inkscape:cx="515.51015"
     inkscape:cy="186.30169"
     inkscape:document-units="mm"
     inkscape:current-layer="layer1"
     inkscape:document-rotation="0"
     showgrid="false"
     inkscape:window-width="1920"
     inkscape:window-height="1017"
     inkscape:window-x="-8"
     inkscape:window-y="-8"
     inkscape:window-maximized="1" />
  <metadata
     id="metadata5">
    <rdf:RDF>
      <cc:Work
         rdf:about="">
        <dc:format>image/svg+xml</dc:format>
        <dc:type
           rdf:resource="http://purl.org/dc/dcmitype/StillImage" />
        <dc:title></dc:title>
      </cc:Work>
    </rdf:RDF>
  </metadata>
  <g
     inkscape:label="Layer 1"
     inkscape:groupmode="layer"
     id="layer1">
    <path
       style="opacity:1;fill:#4d8548;fill-opacity:1;stroke:#4d8548;stroke-width:7.58439;stroke-linecap:round;stroke-linejoin:round;stroke-miterlimit:10;stroke-dasharray:none;stroke-opacity:1;paint-order:stroke fill markers"
       d="m 103.28325,28.899084 19.62342,-11.34469 19.62343,11.28271 v 22.70497 l -19.56152,11.34471 -19.68533,-11.2827 z"
       id="path883"
       inkscape:export-xdpi="96"
       inkscape:export-ydpi="96" />
    <g
       inkscape:export-ydpi="96"
       inkscape:export-xdpi="96"
       transform="translate(59.411345,-12.462137)"
       id="g856">
      <path
         id="path2-6"
         d="M 72.071803,46.474356 H 71.93422 a 6.2415208,6.2415208 0 0 0 -6.085417,4.67784 h -0.03175 a 5.349875,5.349875 0 0 1 -10.6045,-1.00542 4.2333333,4.2333333 0 0 1 0.04233,-0.59002 c 0,-0.0397 0,-0.0794 0.01587,-0.11906 0.01588,-0.0397 0.02646,-0.15082 0.04233,-0.2249 a 16.933333,16.933333 0 0 1 8.908521,-11.5861 13.025437,13.025437 0 0 0 -16.644938,11.39296 c -0.01588,0.0476 -0.03969,0.0926 -0.05556,0.14287 v 19.05 h 7.71525 v -6.16479 a 13.028083,13.028083 0 0 0 17.846146,-15.57338 z"
         fill="#4d8548"
         style="fill:#ffffff;stroke-width:0.264583" />
      <path
         id="path4-6"
         d="m 64.533824,50.906126 0.02381,-0.0397 a 7.5141667,7.5141667 0 0 1 7.286625,-5.70177 c 0.07937,0 0.150812,0 0.230187,0 h 0.174625 3.283479 a 3.9952083,3.9952083 0 0 0 1.637771,-0.41804 c -0.127,-0.0159 -0.264583,-0.0344 -0.383646,-0.0609 a 5.2731458,5.2731458 0 0 1 -4.0005,-3.556 5.2916667,5.2916667 0 0 0 3.159125,1.97114 5.2281667,5.2281667 0 0 0 3.153834,-0.35983 4.0269583,4.0269583 0 0 0 -3.672417,-5.63033 l -2.942167,-0.008 h -0.635 a 15.581312,15.581312 0 0 0 -15.221476,12.25815 3.96875,3.96875 0 0 0 -0.103187,0.79375 4.0401875,4.0401875 0 0 0 8.008937,0.75935 z m 9.644063,-11.47233 a 1.2514792,1.2514792 0 1 1 0.98425,1.47108 1.254125,1.254125 0 0 1 -0.986896,-1.46843 z m 5.291667,24.7994 a 4.03225,4.03225 0 0 1 -4.032251,4.03225 h -3.593041 a 15.496646,15.496646 0 0 1 -10.19175,-3.81529 14.2875,14.2875 0 0 0 9.212791,-4.318 7.7708125,7.7708125 0 0 0 0.978959,0.0688 c 0.07937,0 3.526896,0 3.579812,0 a 4.0348958,4.0348958 0 0 1 4.03225,4.03489 z"
         fill="#4d8548"
         style="fill:#ffffff;stroke-width:0.264583" />
    </g>
  </g>
</svg>
