<?xml version="1.0" encoding="UTF-8" standalone="no"?>
<svg
   xmlns:dc="http://purl.org/dc/elements/1.1/"
   xmlns:cc="http://creativecommons.org/ns#"
   xmlns:rdf="http://www.w3.org/1999/02/22-rdf-syntax-ns#"
   xmlns:svg="http://www.w3.org/2000/svg"
   xmlns="http://www.w3.org/2000/svg"
   xmlns:sodipodi="http://sodipodi.sourceforge.net/DTD/sodipodi-0.dtd"
   xmlns:inkscape="http://www.inkscape.org/namespaces/inkscape"
   width="210mm"
   height="297mm"
   viewBox="0 0 210 297"
   version="1.1"
   id="svg8"
   inkscape:version="1.0 (4035a4fb49, 2020-05-01)"
   sodipodi:docname="python.svg">
  <defs
     id="defs2">
    <pattern
       y="0"
       x="0"
       height="6"
       width="6"
       patternUnits="userSpaceOnUse"
       id="EMFhbasepattern" />
    <linearGradient
       gradientUnits="userSpaceOnUse"
       gradientTransform="matrix(0.14896041,0,0,-0.15028333,-19.60223,229.4675)"
       y2="1151.089"
       y1="1237.476"
       x2="170.659"
       x1="70.251999"
       id="a">
      <stop
         id="stop2"
         stop-color="#5A9FD4"
         offset="0" />
      <stop
         id="stop4"
         stop-color="#306998"
         offset="1" />
    </linearGradient>
    <linearGradient
       gradientUnits="userSpaceOnUse"
       gradientTransform="matrix(0.14896041,0,0,-0.15028333,-19.60223,229.4675)"
       y2="1149.537"
       y1="1098.811"
       x2="173.62"
       x1="209.474"
       id="b">
      <stop
         id="stop9"
         stop-color="#FFD43B"
         offset="0" />
      <stop
         id="stop11"
         stop-color="#FFE873"
         offset="1" />
    </linearGradient>
    <radialGradient
       gradientUnits="userSpaceOnUse"
       gradientTransform="matrix(0,-0.0635,-0.27913541,0,129.14493,189.71623)"
       r="26.743"
       cy="444.45001"
       cx="1825.678"
       id="c">
      <stop
         id="stop16"
         stop-opacity=".498"
         stop-color="#B8B8B8"
         offset="0" />
      <stop
         id="stop18"
         stop-opacity="0"
         stop-color="#7F7F7F"
         offset="1" />
    </radialGradient>
  </defs>
  <sodipodi:namedview
     id="base"
     pagecolor="#ffffff"
     bordercolor="#666666"
     borderopacity="1.0"
     inkscape:pageopacity="0.0"
     inkscape:pageshadow="2"
     inkscape:zoom="1.1500845"
     inkscape:cx="262.44363"
     inkscape:cy="150.42971"
     inkscape:document-units="mm"
     inkscape:current-layer="layer1"
     inkscape:document-rotation="0"
     showgrid="false"
     inkscape:window-width="1920"
     inkscape:window-height="1017"
     inkscape:window-x="-8"
     inkscape:window-y="-8"
     inkscape:window-maximized="1" />
  <metadata
     id="metadata5">
    <rdf:RDF>
      <cc:Work
         rdf:about="">
        <dc:format>image/svg+xml</dc:format>
        <dc:type
           rdf:resource="http://purl.org/dc/dcmitype/StillImage" />
        <dc:title />
      </cc:Work>
    </rdf:RDF>
  </metadata>
  <g
     inkscape:label="Layer 1"
     inkscape:groupmode="layer"
     id="layer1">
    <path
       style="opacity:1;fill:#ffd43b;fill-opacity:1;stroke:#ffd43b;stroke-width:7.58439;stroke-linecap:round;stroke-linejoin:round;stroke-miterlimit:10;stroke-dasharray:none;stroke-opacity:1;paint-order:stroke fill markers"
       d="m 80.791384,45.366365 19.623416,-11.34469 19.62343,11.28271 v 22.70497 l -19.56152,11.34471 -19.685326,-11.2827 z"
       id="path883"
       inkscape:export-xdpi="96"
       inkscape:export-ydpi="96" />
    <g
       inkscape:export-ydpi="96"
       inkscape:export-xdpi="96"
       id="g1450"
       transform="matrix(1.1340363,0,0,1.1340363,94.675199,-7.2828709)"
       style="stroke:#ffd43b;stroke-opacity:1">
      <path
         style="fill:#ffffff;stroke-width:0.264583;stroke:#ffd43b;stroke-opacity:1"
         fill="url(#a)"
         d="m 4.899774,42.716909 c -1.117071,0.0053 -2.183342,0.100277 -3.122084,0.266435 -2.76489559,0.488421 -3.2665456,1.510771 -3.2665456,3.396457 v 2.489993 H 5.044501 v 0.829998 h -8.9855149 c -1.89865,0 -3.5612916,1.141148 -4.0814625,3.312849 -0.600075,2.488406 -0.6265333,4.04151 0,6.639983 0.4643438,1.934369 1.5734771,3.312319 3.4723916,3.312319 h 2.2465771 v -2.985029 c 0,-2.156619 1.86557711,-4.058709 4.0814627,-4.058709 h 6.525948 c 1.816629,0 3.266546,-1.495954 3.266546,-3.319992 v -6.221148 c 0,-1.770856 -1.493838,-3.100916 -3.266546,-3.396456 C 7.181011,42.796813 6.01658,42.711882 4.899774,42.716909 Z M 1.3665277,44.71954 c 0.6746873,0 1.2260793,0.560123 1.2260793,1.249098 0,0.686065 -0.551127,1.240896 -1.2260793,1.240896 -0.67733329,0 -1.22581449,-0.554831 -1.22581449,-1.240896 -2.646e-4,-0.688975 0.5484812,-1.249098 1.22581449,-1.249098 z"
         id="path7" />
      <path
         style="fill:#ffffff;stroke-width:0.264583;stroke:#ffd43b;stroke-opacity:1"
         fill="url(#b)"
         d="m 12.385101,49.699792 v 2.901421 c 0,2.248959 -1.907117,4.142053 -4.081463,4.142053 H 1.77769 c -1.78752479,0 -3.2665456,1.530085 -3.2665456,3.320256 v 6.221677 c 0,1.770327 1.53934581,2.811992 3.2665456,3.319728 2.067984,0.607748 4.0513,0.717815 6.525948,0 1.64465,-0.476516 3.266546,-1.434836 3.266546,-3.319728 V 63.794941 H 5.044501 v -0.830263 h 9.792758 c 1.89865,0 2.606675,-1.324239 3.267074,-3.312319 0.682096,-2.046552 0.652728,-4.014787 0,-6.639983 -0.46937,-1.890448 -1.365514,-3.312848 -3.267074,-3.312848 H 12.385101 Z M 8.714536,65.454936 c 0.677598,0 1.226079,0.554832 1.226079,1.241425 0,0.688446 -0.548746,1.248569 -1.226079,1.248569 -0.674687,0 -1.225815,-0.560123 -1.225815,-1.248569 0,-0.686593 0.551128,-1.241425 1.225815,-1.241425 z"
         id="path14" />
    </g>
  </g>
</svg>
