<?xml version="1.0" encoding="UTF-8" standalone="no"?>
<svg
   xmlns:dc="http://purl.org/dc/elements/1.1/"
   xmlns:cc="http://creativecommons.org/ns#"
   xmlns:rdf="http://www.w3.org/1999/02/22-rdf-syntax-ns#"
   xmlns:svg="http://www.w3.org/2000/svg"
   xmlns="http://www.w3.org/2000/svg"
   xmlns:sodipodi="http://sodipodi.sourceforge.net/DTD/sodipodi-0.dtd"
   xmlns:inkscape="http://www.inkscape.org/namespaces/inkscape"
   width="210mm"
   height="297mm"
   viewBox="0 0 210 297"
   version="1.1"
   id="svg8"
   inkscape:version="1.0.1 (3bc2e813f5, 2020-09-07)"
   sodipodi:docname="react.svg">
  <defs
     id="defs2">
    <pattern
       y="0"
       x="0"
       height="6"
       width="6"
       patternUnits="userSpaceOnUse"
       id="EMFhbasepattern" />
    <linearGradient
       gradientUnits="userSpaceOnUse"
       gradientTransform="matrix(0.14896041,0,0,-0.15028333,-19.60223,229.4675)"
       y2="1151.089"
       y1="1237.476"
       x2="170.659"
       x1="70.251999"
       id="a">
      <stop
         id="stop2"
         stop-color="#5A9FD4"
         offset="0" />
      <stop
         id="stop4"
         stop-color="#306998"
         offset="1" />
    </linearGradient>
    <linearGradient
       gradientUnits="userSpaceOnUse"
       gradientTransform="matrix(0.14896041,0,0,-0.15028333,-19.60223,229.4675)"
       y2="1149.537"
       y1="1098.811"
       x2="173.62"
       x1="209.474"
       id="b">
      <stop
         id="stop9"
         stop-color="#FFD43B"
         offset="0" />
      <stop
         id="stop11"
         stop-color="#FFE873"
         offset="1" />
    </linearGradient>
    <radialGradient
       gradientUnits="userSpaceOnUse"
       gradientTransform="matrix(0,-0.0635,-0.27913541,0,129.14493,189.71623)"
       r="26.743"
       cy="444.45001"
       cx="1825.678"
       id="c">
      <stop
         id="stop16"
         stop-opacity=".498"
         stop-color="#B8B8B8"
         offset="0" />
      <stop
         id="stop18"
         stop-opacity="0"
         stop-color="#7F7F7F"
         offset="1" />
    </radialGradient>
  </defs>
  <sodipodi:namedview
     id="base"
     pagecolor="#ffffff"
     bordercolor="#666666"
     borderopacity="1.0"
     inkscape:pageopacity="0.0"
     inkscape:pageshadow="2"
     inkscape:zoom="2.300169"
     inkscape:cx="515.51015"
     inkscape:cy="178.68355"
     inkscape:document-units="mm"
     inkscape:current-layer="layer1"
     inkscape:document-rotation="0"
     showgrid="false"
     inkscape:window-width="1920"
     inkscape:window-height="1017"
     inkscape:window-x="-8"
     inkscape:window-y="-8"
     inkscape:window-maximized="1" />
  <metadata
     id="metadata5">
    <rdf:RDF>
      <cc:Work
         rdf:about="">
        <dc:format>image/svg+xml</dc:format>
        <dc:type
           rdf:resource="http://purl.org/dc/dcmitype/StillImage" />
        <dc:title />
      </cc:Work>
    </rdf:RDF>
  </metadata>
  <g
     inkscape:label="Layer 1"
     inkscape:groupmode="layer"
     id="layer1">
    <g
       id="g904"
       inkscape:export-xdpi="96"
       inkscape:export-ydpi="96">
      <path
         inkscape:export-ydpi="96"
         inkscape:export-xdpi="96"
         id="path883-5"
         d="m 103.70061,25.459216 20.25327,-11.70882 20.25328,11.64485 v 23.433726 l -20.18939,11.70884 -20.31716,-11.644837 z"
         style="opacity:0.992;fill:#ffffff;fill-opacity:1;stroke:#ffffff;stroke-width:7.82781;stroke-linecap:round;stroke-linejoin:round;stroke-miterlimit:10;stroke-dasharray:none;stroke-opacity:1;paint-order:stroke fill markers" />
      <g
         id="g878">
        <path
           style="opacity:1;fill:#61dafb;fill-opacity:1;stroke:#61dafb;stroke-width:7.58439;stroke-linecap:round;stroke-linejoin:round;stroke-miterlimit:10;stroke-dasharray:none;stroke-opacity:1;paint-order:stroke fill markers"
           d="m 104.33046,25.822599 19.62342,-11.34469 19.62343,11.28271 v 22.70497 l -19.56152,11.34471 -19.68533,-11.2827 z"
           id="path883"
           inkscape:export-xdpi="96"
           inkscape:export-ydpi="96" />
        <g
           inkscape:export-ydpi="96"
           inkscape:export-xdpi="96"
           style="fill:#ffffff"
           transform="matrix(1.1417814,0,0,1.1417814,15.207203,-45.037972)"
           id="g890">
          <g
             style="fill:#ffffff"
             id="g883">
            <circle
               id="circle2"
               r="2.4606249"
               cy="71.963837"
               cx="95.243004"
               style="fill:#ffffff;stroke-width:0.264583" />
            <path
               sodipodi:nodetypes="csccccsccccscsccccscccccccsccccccccccscccccscccccsccccccccccccccsccccccsccccscccccscsccccsccccccsccccccccscc"
               id="path4"
               d="m 95.243002,81.012587 c 1.931458,1.878542 3.836458,2.989792 5.371038,2.989792 0.50271,0 0.97896,-0.105834 1.37584,-0.343959 1.37583,-0.79375 1.87854,-2.778125 1.40229,-5.609166 -0.0794,-0.502709 -0.18521,-1.005417 -0.3175,-1.534584 0.52917,-0.15875 1.00542,-0.3175 1.48167,-0.47625 2.67229,-1.031875 4.15395,-2.460625 4.15395,-4.021666 0,-1.5875 -1.48166,-3.01625 -4.15395,-4.021667 -0.47625,-0.185208 -0.9525,-0.343958 -1.48167,-0.47625 0.13229,-0.529166 0.23812,-1.031875 0.3175,-1.534583 0.44979,-2.883958 -0.0529,-4.894792 -1.42875,-5.688542 -0.39688,-0.238125 -0.87313,-0.343958 -1.37583,-0.343958 -1.50813,0 -3.439588,1.11125 -5.371046,2.989792 -1.905,-1.878542 -3.81,-2.989792 -5.344583,-2.989792 -0.502709,0 -0.978959,0.105833 -1.375834,0.343958 -1.375833,0.79375 -1.878541,2.778125 -1.402291,5.609167 0.07937,0.502708 0.185208,1.005417 0.3175,1.534583 -0.529167,0.15875 -1.005417,0.3175 -1.481667,0.47625 -2.672292,1.031875 -4.153958,2.460625 -4.153958,4.021667 0,1.5875 1.481666,3.01625 4.153958,4.021666 0.47625,0.185209 0.9525,0.343959 1.481667,0.47625 -0.132292,0.529167 -0.238125,1.031875 -0.3175,1.534584 -0.449792,2.831041 0.05292,4.841875 1.402291,5.609166 0.396875,0.238125 0.873125,0.343959 1.375834,0.343959 1.534583,0.05292 3.439583,-1.058334 5.371041,-2.910417 z m -1.481667,-3.571875 c 0.47625,0.02646 0.978959,0.02646 1.481667,0.02646 0.502708,0 1.005417,0 1.481667,-0.02646 -0.47625,0.635 -0.978959,1.217083 -1.481667,1.772708 -0.502708,-0.555625 -1.005417,-1.137708 -1.481667,-1.772708 z m -3.280833,-2.725208 c 0.264584,0.449791 0.502709,0.873125 0.79375,1.296458 -0.820208,-0.105833 -1.5875,-0.238125 -2.328333,-0.396875 0.238125,-0.714375 0.502708,-1.455208 0.820208,-2.196042 0.211667,0.423334 0.449792,0.873125 0.714375,1.296459 z m -1.534583,-6.376458 c 0.740833,-0.15875 1.508125,-0.291042 2.328333,-0.396875 -0.264583,0.423333 -0.529166,0.846666 -0.79375,1.296458 -0.264583,0.449792 -0.502708,0.873125 -0.714375,1.322917 -0.343958,-0.767292 -0.608541,-1.508125 -0.820208,-2.2225 z m 1.455208,3.624791 c 0.343959,-0.714375 0.714375,-1.42875 1.137709,-2.143125 0.396874,-0.687916 0.846666,-1.375833 1.296458,-2.06375 0.79375,-0.05292 1.5875,-0.07937 2.407708,-0.07937 0.846667,0 1.640417,0.02646 2.407708,0.07937 0.47625,0.687917 0.899584,1.375834 1.296459,2.06375 0.423333,0.714375 0.79375,1.42875 1.137711,2.143125 -0.343961,0.714375 -0.714378,1.42875 -1.137711,2.143125 -0.396875,0.687917 -0.846667,1.375833 -1.296459,2.06375 -0.79375,0.05292 -1.5875,0.07937 -2.407708,0.07937 -0.846667,0 -1.640417,-0.02646 -2.407708,-0.07937 -0.47625,-0.687917 -0.899584,-1.375833 -1.296458,-2.06375 -0.423334,-0.714375 -0.79375,-1.42875 -1.137709,-2.143125 z m 10.345213,-1.42875 -0.71438,-1.322916 c -0.264583,-0.449792 -0.502708,-0.873125 -0.79375,-1.296459 0.82021,0.105834 1.5875,0.238125 2.32833,0.396875 -0.23812,0.740834 -0.5027,1.481667 -0.8202,2.2225 z m 0,2.8575 c 0.3175,0.740833 0.58208,1.481667 0.8202,2.196042 -0.74083,0.15875 -1.50812,0.291041 -2.32833,0.396875 0.264584,-0.423334 0.529167,-0.846667 0.79375,-1.296459 0.23813,-0.396875 0.47625,-0.846666 0.71438,-1.296458 z m 0.60854,9.181042 c -0.21167,0.132291 -0.47625,0.185208 -0.76729,0.185208 -1.296463,0 -2.910421,-1.058333 -4.497921,-2.645833 0.767291,-0.820209 1.508125,-1.74625 2.248958,-2.778125 1.243542,-0.105834 2.434163,-0.291042 3.545413,-0.555625 0.1323,0.47625 0.21167,0.9525 0.29105,1.42875 0.37041,2.248958 0.0794,3.862916 -0.82021,4.365625 z m 1.37583,-13.943542 c 2.96333,0.846667 4.73604,2.143125 4.73604,3.33375 0,1.031875 -1.21708,2.06375 -3.36021,2.883958 -0.42333,0.15875 -0.89958,0.3175 -1.37583,0.449792 -0.34396,-1.084792 -0.76729,-2.196042 -1.29646,-3.33375 0.52917,-1.137708 0.97896,-2.248958 1.29646,-3.33375 z m -2.11667,-7.46125 c 0.29105,0 0.52917,0.05292 0.7673,0.185209 0.87312,0.502708 1.19062,2.090208 0.8202,4.365625 -0.0794,0.449791 -0.1852,0.926041 -0.29104,1.42875 -1.11125,-0.238125 -2.301873,-0.423334 -3.545415,-0.555625 -0.714375,-1.031875 -1.481666,-1.957917 -2.248958,-2.778125 1.5875,-1.561042 3.201458,-2.645834 4.497913,-2.645834 z m -3.889371,5.318125 c -0.47625,-0.02646 -0.978959,-0.02646 -1.481667,-0.02646 -0.502708,0 -1.005417,0 -1.481667,0.02646 0.47625,-0.635 0.978959,-1.217083 1.481667,-1.772708 0.502708,0.555625 1.005417,1.164167 1.481667,1.772708 z m -7.593542,-5.132916 c 0.211667,-0.132292 0.47625,-0.185209 0.767292,-0.185209 1.296458,0 2.910416,1.058334 4.497916,2.645834 -0.767291,0.820208 -1.508125,1.74625 -2.248958,2.778125 -1.243541,0.105833 -2.434166,0.291041 -3.545416,0.555625 -0.132292,-0.47625 -0.211667,-0.9525 -0.291042,-1.42875 -0.370417,-2.248959 -0.07937,-3.836459 0.820208,-4.365625 z m -1.375833,13.943541 c -2.963333,-0.846667 -4.736042,-2.143125 -4.736042,-3.33375 0,-1.031875 1.217084,-2.06375 3.360209,-2.883958 0.423333,-0.15875 0.899583,-0.3175 1.375833,-0.449792 0.343958,1.084792 0.767292,2.196042 1.296458,3.33375 -0.529166,1.137708 -0.978958,2.275417 -1.296458,3.33375 z m 0.555625,2.910417 c 0.07937,-0.449792 0.185208,-0.926042 0.291042,-1.42875 1.11125,0.238125 2.301875,0.423333 3.545416,0.555625 0.714375,1.031875 1.481667,1.957916 2.248958,2.778125 -1.5875,1.561041 -3.201458,2.645833 -4.497916,2.645833 -0.291042,0 -0.529167,-0.05292 -0.767292,-0.185208 -0.899583,-0.502709 -1.190625,-2.116667 -0.820208,-4.365625 z"
               style="fill:#ffffff;stroke-width:0.264583" />
          </g>
        </g>
      </g>
    </g>
  </g>
</svg>
